<?xml version="1.0" encoding="utf-8"?>
<!-- Generator: Adobe Illustrator 27.3.1, SVG Export Plug-In . SVG Version: 6.00 Build 0)  -->
<svg version="1.1" id="Layer_1" xmlns="http://www.w3.org/2000/svg" xmlns:xlink="http://www.w3.org/1999/xlink" x="0px" y="0px"
	 viewBox="0 0 120 120" style="enable-background:new 0 0 120 120;" xml:space="preserve">
<style type="text/css">
	.st0{fill:#E33D26;}
	.st1{fill:#FFFFFF;}
	.st2{fill:#FFFFFF;stroke:#FFFFFF;stroke-width:2;}
</style>
<path class="st0" d="M30.4,4.6h58.7c14.3,0,25.9,11.6,25.9,25.9v59.1c0,14.3-11.6,25.9-25.9,25.9H30.4c-14.3,0-25.9-11.6-25.9-25.9
	V30.4C4.5,16.1,16.1,4.6,30.4,4.6z"/>
<path class="st1" d="M59.4,66.1l13.3,25.5H46.1L59.4,66.1z"/>
<circle class="st1" cx="59.4" cy="57.5" r="6.8"/>
<path class="st2" d="M59.4,83.3c14.2,0,25.7-11.5,25.7-25.7c0-14.2-11.5-25.7-25.7-25.7c-14.2,0-25.7,11.5-25.7,25.7
	C33.6,71.8,45.1,83.3,59.4,83.3z M87.4,57.5c0,15.5-12.5,28-28,28c-15.5,0-28-12.5-28-28c0-15.5,12.5-28,28-28
	C74.8,29.5,87.4,42.1,87.4,57.5z"/>
</svg>
