<svg width="485" height="375" viewBox="0 0 485 375" fill="none" xmlns="http://www.w3.org/2000/svg">
<path d="M122.508 374V359.15C122.508 354.915 124.213 352.55 127.293 352.55C130.098 352.55 131.418 354.365 131.418 358.16V374H140.218V356.95C140.218 349.635 137.193 345.84 131.253 345.84C127.073 345.84 124.048 347.765 122.123 351.78V346.5H113.653V374H122.508ZM172.524 359.59C172.524 350.845 167.684 345.84 159.049 345.84C150.469 345.84 145.079 351.505 145.079 360.525C145.079 369.435 150.579 374.66 159.654 374.66C165.374 374.66 170.049 371.965 172.249 367.455L165.759 364.485C164.494 367.015 162.459 368.335 159.764 368.335C156.024 368.335 153.549 365.97 153.439 362.23H172.524V359.59ZM153.494 357.28C153.549 353.375 155.474 351.065 158.884 351.065C162.184 351.065 163.999 353.155 163.999 357.06V357.28H153.494ZM194.352 358.435C194.517 357.665 194.847 356.125 194.902 355.465H195.012C195.067 356.125 195.397 357.665 195.562 358.435L199.577 374H208.157L215.472 346.5H207.057L203.647 363.33C203.482 364.1 203.372 365.035 203.262 365.97H203.152C203.042 365.035 202.877 364.1 202.712 363.33L198.697 346.5H191.217L187.202 363.33C186.982 364.1 186.872 365.035 186.762 365.97H186.652C186.542 365.035 186.377 364.1 186.267 363.33L182.802 346.5H174.387L181.757 374H190.337L194.352 358.435ZM230.301 374.66C238.056 374.66 242.511 371.085 242.511 365.585C242.511 360.965 240.091 358.16 234.426 357.225L228.981 356.29C226.836 355.905 226.011 355.355 226.011 354.035C226.011 352.495 227.221 351.725 229.806 351.725C233.326 351.725 236.076 352.88 238.166 355.025L242.731 350.955C240.531 347.71 235.856 345.84 230.301 345.84C222.766 345.84 218.256 349.305 218.256 354.53C218.256 359.205 221.061 362.01 226.726 362.945L231.016 363.715C234.041 364.155 234.921 364.705 234.921 366.19C234.921 367.675 233.491 368.665 230.466 368.665C226.671 368.665 223.756 367.235 221.831 364.54L216.716 368.28C219.356 372.46 224.306 374.66 230.301 374.66ZM247.555 374H256.41V358.27C256.41 354.585 257.895 352.55 260.535 352.55C262.955 352.55 264.165 354.255 264.165 357.83V374H272.965V358.215C272.965 354.53 274.45 352.55 277.09 352.55C279.62 352.55 280.775 354.2 280.775 357.885V374H289.575V356.015C289.575 349.58 286.44 345.84 281.105 345.84C277.145 345.84 274.285 347.655 272.305 351.505C270.93 347.6 268.4 345.84 264.495 345.84C260.425 345.84 257.785 347.655 256.025 351.45V346.5H247.555V374ZM303.69 374.66C307.98 374.66 311.5 372.735 312.875 369.655C312.93 371.195 313.04 372.68 313.315 374H321.895C321.4 372.295 321.125 369.6 321.125 366.355V357.225C321.125 349.305 317.165 345.84 308.31 345.84C300.5 345.84 295.55 349.47 295.11 355.575H303.855C304.02 352.935 305.56 351.505 308.255 351.505C311.005 351.505 312.325 352.88 312.325 356.015V356.95L305.67 357.885C301.49 358.435 298.85 359.315 297.035 360.58C295.165 361.9 294.23 363.935 294.23 366.52C294.23 371.415 298.025 374.66 303.69 374.66ZM306.99 369.05C304.68 369.05 303.14 367.785 303.14 365.86C303.14 363.825 304.625 362.67 307.87 362.065L312.6 361.295V363.495C312.6 366.795 310.345 369.05 306.99 369.05ZM338.959 374.66C346.714 374.66 351.169 371.085 351.169 365.585C351.169 360.965 348.749 358.16 343.084 357.225L337.639 356.29C335.494 355.905 334.669 355.355 334.669 354.035C334.669 352.495 335.879 351.725 338.464 351.725C341.984 351.725 344.734 352.88 346.824 355.025L351.389 350.955C349.189 347.71 344.514 345.84 338.959 345.84C331.424 345.84 326.914 349.305 326.914 354.53C326.914 359.205 329.719 362.01 335.384 362.945L339.674 363.715C342.699 364.155 343.579 364.705 343.579 366.19C343.579 367.675 342.149 368.665 339.124 368.665C335.329 368.665 332.414 367.235 330.489 364.54L325.374 368.28C328.014 372.46 332.964 374.66 338.959 374.66ZM358.285 352.385V365.145C358.285 371.195 361.31 374.495 368.625 374.495C370.22 374.495 371.595 374.33 373.63 373.945V366.96C372.805 367.125 372.145 367.235 371.1 367.235C368.46 367.235 367.085 365.805 367.085 363.055V352.385H373.63V346.5H367.085V336.49L358.285 339.9V346.5H353.5V352.385H358.285Z" fill="#E33D26"/>
<path d="M237.935 170.689L298.408 287.067H177.463L237.935 170.689Z" fill="#E33D26"/>
<circle cx="237.933" cy="131.896" r="31.0343" fill="#E33D26"/>
<circle cx="237.935" cy="131.896" r="121.896" stroke="#E33D26" stroke-width="20"/>
</svg>
