<?xml version="1.0" encoding="UTF-8"?><svg id="Layer_2" xmlns="http://www.w3.org/2000/svg" viewBox="0 0 339.9930296 230"><defs><style>.cls-1{fill:#cf4af0;}.cls-1,.cls-2,.cls-3,.cls-4,.cls-5,.cls-6{stroke-width:0px;}.cls-2{fill:#3fa7e8;}.cls-3{fill:#ffd53b;}.cls-4{fill:#ff3c26;}.cls-5{fill:#ffffff;}.cls-6{fill:#45e67a;}</style></defs><g id="Patchwork_Branding"><g id="Logo_-_Color_on_White"><path id="Wordmark_-_Black" class="cls-5" d="M0,184.4543158h12.7142136v4.7835508c1.9653637-3.6040349,5.7011174-5.5701427,10.0262569-5.5701427,7.8644313,0,13.0416502,6.618684,13.0416502,17.038609,0,10.5508996-5.2427062,17.3013024-13.5000614,17.3013024-3.6702664,0-6.422222-1.3104905-9.0439472-4.3251396v16.3175043H0v-45.5456842ZM22.216572,200.7063328c0-5.5046554-1.6386713-8.4538172-4.784295-8.4538172-2.9491618,0-4.4561142,2.4907505-4.4561142,7.8644313v1.9006205c0,4.4561142,1.7689017,7.4052759,4.5870888,7.4052759,2.8836744,0,4.6533203-3.3428298,4.6533203-8.7165106ZM38.7305383,208.2425834c0-2.9484176.8520793-5.1109874,2.6872125-6.6841713,1.9653637-1.7041586,5.1109874-2.8181871,9.8952823-3.5385476l8.9122284-1.3112347v-1.4414651c0-2.4900064-1.2450032-3.6695222-3.4730603-3.6695222-2.5554937,0-3.8667284,1.3104905-4.0631903,3.9314715h-12.9099314c.5893858-7.6017379,6.8806332-11.8613901,17.038609-11.8613901,11.4029789,0,16.6456851,4.1941649,16.6456851,13.5655487v11.9268775c0,3.211111.3274366,6.3567347.786592,8.0608933h-12.7134694c-.3281808-1.5069524-.4591554-3.0146491-.4591554-4.784295-1.7034144,3.4083171-5.9630666,5.5708869-10.9438235,5.5708869-6.8158901,0-11.4029789-3.9322157-11.4029789-9.7650519ZM60.6844169,205.6870897v-3.1456237l-3.801241.7211047c-3.2765983.6548732-4.8490381,1.8998763-4.8490381,3.8659842,0,1.7696459,1.4414651,3.0146491,3.5385476,3.0146491,3.0146491,0,5.1117315-1.834389,5.1117315-4.4561142ZM75.5604561,184.4543158h5.4391681v-7.4707633l13.2381121-4.9807569v12.4515202h7.5362506v8.3883299h-7.5362506v9.7643077c0,3.0146491,1.7034144,4.7188076,4.7835508,4.7188076,1.1140285,0,1.9006205-.0662315,2.7526998-.1972061v10.0924884c-2.9491618.4584112-4.7188076.6556173-6.5531967.6556173-9.633333,0-14.221166-3.7357537-14.221166-11.5339536v-13.5000614h-5.4391681v-8.3883299ZM104.0690197,200.8373074c0-10.6818743,7.1433267-17.1695836,18.6772802-17.1695836,9.1094345,0,15.20422,4.1286776,16.6456851,11.4684662l-12.2550582,2.7526998c-.5238985-3.2773425-2.2280571-4.9152696-4.7180635-4.9152696-3.1456237,0-5.0462442,2.7526998-5.0462442,7.4052759,0,5.2427062,1.8351332,8.1918679,5.0462442,8.1918679,2.5554937,0,4.2596522-1.9006205,4.6525761-5.1117315l12.3205455,2.8836744c-1.1795159,7.0116079-7.9299187,11.6649282-16.842147,11.6649282-11.0755424,0-18.4808183-6.8158901-18.4808183-17.1703278ZM144.3065104,169.7092512h13.237368v20.3806946c2.0970825-4.3906269,5.5053996-6.5531967,10.2234631-6.5531967,7.0778394,0,10.6818743,4.5216015,10.6818743,13.3035994v20.3806946h-13.237368v-19.0047168c0-3.2765983-1.1795159-4.9152696-3.6047791-4.9152696-2.620981,0-4.0631903,2.0970825-4.0631903,5.9638108v17.9561756h-13.237368v-47.5117921ZM181.3998658,184.4543158h12.3852887l3.0801364,18.1526375c.1309746.8520793.2626934,1.7696459.3281808,2.7526998h.1309746c.0654873-.9830539.1309746-1.9006205.3274366-2.7526998l4.1286776-18.1526375h10.5508996l4.1286776,18.1526375c.1964619.8520793.2619493,1.7696459.3274366,2.7526998h.1317188c.0654873-.9830539.1964619-1.9006205.3274366-2.7526998l3.0801364-18.1526375h12.3860328l-8.4545614,32.7667275h-12.5162633l-4.3258837-16.9731217c-.1964619-.786592-.2619493-1.5731839-.2619493-2.2280571h-.1964619c0,.6548732-.0654873,1.4414651-.2619493,2.2280571l-4.3251396,16.9731217h-12.5170075l-8.4538172-32.7667275ZM233.3685163,200.7063328c0-11.5994409,8.0608933-17.038609,17.9561756-17.038609,9.8960265,0,17.9561756,5.4391681,17.9561756,17.038609s-8.0601491,17.3013024-17.9561756,17.3013024c-9.8952823,0-17.9561756-5.7018616-17.9561756-17.3013024ZM256.2399615,200.7063328c0-5.9630666-1.8351332-8.4538172-4.9152696-8.4538172s-4.9145254,2.4907505-4.9145254,8.4538172c0,5.9638108,1.834389,8.7165106,4.9145254,8.7165106s4.9152696-2.7526998,4.9152696-8.7165106ZM298.1168676,183.6677238h.3936681v12.5170075c-.9830539-.0654873-1.7696459-.1309746-2.8836744-.1309746-2.5562379,0-4.587833.5893858-5.8983235,1.7034144-1.5069524,1.3112347-2.2935444,3.4738045-2.2935444,6.4229662v13.040906h-13.2381121v-32.7667275h12.4515202v8.9777157c1.7696459-6.5531967,5.5053996-9.7643077,11.4684662-9.7643077ZM319.022205,205.6216024l-2.3597759,2.620981v8.9784599h-13.237368v-47.5117921h13.237368v25.8853501l8.3883299-11.1402855h14.8767834l-11.8621343,13.237368,11.9276216,19.5293595h-14.3521407l-6.618684-11.5994409Z"/><g id="Symbol_-_Full_Colour"><path class="cls-4" d="M105.3506386,66.400883l59.5909836-19.3622843-6.4032421-8.7210261c-1.9837381-2.7017925-5.4764318-3.826966-8.6642307-2.7911873l-39.154522,12.7220754c-3.2014464,1.040213-5.3689888,4.0235792-5.3689888,7.3897791v10.7626432Z"/><path class="cls-4" d="M105.3506386,41.7889849l45.0420788-14.6350586-6.3261229-8.7071612c-1.9786027-2.723313-5.48576-3.8628574-8.6872064-2.8226445l-24.6597607,8.012442c-3.2014464,1.040213-5.3689888,4.0235792-5.3689888,7.3897791v10.7626432Z"/><path class="cls-3" d="M148.5508123,11.3444654l36.8746764,50.6580855,6.3076012-8.7904478c1.9541083-2.7232995,1.941621-6.3927366-.030977-9.1026733l-24.2286709-33.2851214c-1.981043-2.7215383-5.4892203-3.8579386-8.689733-2.8148564l-10.2328966,3.3350134Z"/><path class="cls-3" d="M171.9512917,3.7179922l27.8718689,38.2901127,6.3183156-8.7128283c1.9761608-2.7250854,1.9728553-6.4127274-.0081877-9.1342657l-15.2593671-20.9631758c-1.981043-2.7215383-5.4892203-3.8579386-8.689733-2.8148564l-10.2328966,3.3350134Z"/><path class="cls-2" d="M211.6851869,105.3440864l-59.5638631-19.3622843v10.8191896c.016804,3.351808,2.2082128,6.3150463,5.3960117,7.350825l39.154522,12.7220754c3.2014464,1.040213,6.7086037-.0993315,8.6872064-2.8226445l6.3261229-8.7071612Z"/><path class="cls-2" d="M197.2186761,125.2555303l-45.0420788-14.6350586v10.7626432c0,3.3661999,2.1675424,6.3495661,5.3689888,7.3897791l24.6597607,8.012442c3.2014464,1.040213,6.7086037-.0993315,8.6872064-2.8226445l6.3261229-8.7071612Z"/><path class="cls-6" d="M214.2578137,35.46851l-36.8292533,50.6911184,10.3064222,3.2917271c3.1929516,1.0197841,6.6799605-.1228853,8.6501286-2.8345891l24.1988254-33.3068258c1.9786027-2.723313,1.9786027-6.4109564,0-9.1342693l-6.3261229-8.7071612Z"/><path class="cls-6" d="M228.7243244,55.3799539l-27.8375357,38.3150808,10.2358819,3.3258396c3.2014464,1.040213,6.7086037-.0993315,8.6872064-2.8226445l15.2405703-20.9768454c1.9786027-2.723313,1.9786027-6.4109564,0-9.1342693l-6.3261229-8.7071612Z"/><path class="cls-1" d="M144.3460798,124.4932389v-62.657643l-10.2979343,3.4041067c-3.1816221,1.0545995-5.3099092,4.0305764-5.3069047,7.3824252v41.1694843c.0030174,3.3661986,2.1916846,6.3476207,5.3940621,7.3849636l10.2107768,3.3166632Z"/><path class="cls-1" d="M120.9388219,116.9087287v-47.3600254l-10.2541226,3.3350134c-3.2005127,1.0430822-5.3537592,4.0283902-5.3507418,7.3945887v25.9287965c.0030174,3.3661986,2.184854,6.3476207,5.3872315,7.3849636l10.217633,3.3166632Z"/></g></g></g></svg>
