<?xml version="1.0" encoding="UTF-8"?>
<svg xmlns="http://www.w3.org/2000/svg" id="Layer_1" data-name="Layer 1" version="1.1" viewBox="0 0 1147.9105241 1200">
  <defs>
    <style>
      .cls-1 {
        fill: #cf4af0;
      }

      .cls-1, .cls-2, .cls-3, .cls-4, .cls-5 {
        stroke-width: 0px;
      }

      .cls-2 {
        fill: #3fa7e8;
      }

      .cls-3 {
        fill: #ffd53b;
      }

      .cls-4 {
        fill: #ff3c26;
      }

      .cls-5 {
        fill: #45e67a;
      }
    </style>
  </defs>
  <path class="cls-4" d="M.2476279,580.9090181l521.3325219-169.3912046-56.0188493-76.2960143c-17.3547592-23.6366682-47.9106369-33.4802632-75.7991389-24.4187396L47.2182987,422.1023074C19.2104019,431.2026247.2476279,457.302644.2476279,486.7518894v94.1571287Z"></path>
  <path class="cls-4" d="M.2476279,365.5914962l394.0512327-128.0350068-55.3441716-76.1747172c-17.3098321-23.82494-47.992245-33.7942603-76.0001417-24.693943L47.2182987,206.7847855C19.2104019,215.8851028.2476279,241.9851221.2476279,271.4343675v94.1571287Z"></path>
  <path class="cls-3" d="M378.1849287,99.2472086l322.5986023,443.1829423,55.1821337-76.9033511c17.0955429-23.8248224,16.9862972-55.9269422-.2710029-79.6348595l-211.9648531-291.1953324c-17.3311811-23.8094145-48.0225178-33.751228-76.0222461-24.625809l-89.522634,29.1764098Z"></path>
  <path class="cls-3" d="M582.9043374,32.5269045l243.8374197,334.9815662,55.2758689-76.2242954c17.2884693-23.8404464,17.2595512-56.1018315-.0716299-79.911246L748.4492174,27.9763037c-17.3311811-23.8094145-48.0225178-33.751228-76.0222461-24.625809l-89.522634,29.1764098Z"></path>
  <path class="cls-2" d="M930.5168544,921.6041574l-521.3325218-169.3912047.4745291,94.6518257c.1470101,29.3233378,19.0813146,55.2472677,46.9698165,64.3087913l342.5438629,111.2992479c28.0078967,9.1003173,58.6903096-.869003,76.0001418-24.693943l55.3441716-76.1747172Z"></path>
  <path class="cls-2" d="M803.9563904,1095.7996919l-394.0512327-128.0350069v94.1571287c0,29.4492454,18.962774,55.5492647,46.9706707,64.649582l215.7362485,70.0969564c28.0078967,9.1003173,58.6903096-.869003,76.0001418-24.693943l55.3441716-76.1747172Z"></path>
  <path class="cls-5" d="M953.0235145,310.2967369l-322.201218,443.4719311,90.1658731,28.7977187c27.9335801,8.9215948,58.4397244-1.0750639,75.6757665-24.7984406l211.7037499-291.3852138c17.3098321-23.82494,17.3098321-56.0863381,0-79.9112781l-55.3441716-76.1747173Z"></path>
  <path class="cls-5" d="M1079.5839784,484.4922713l-243.5370551,335.1999996,89.5487508,29.0961529c28.0078967,9.1003173,58.6903096-.869003,76.0001418-24.693943l133.3323342-183.5162142c17.3098321-23.82494,17.3098321-56.0863381,0-79.9112781l-55.3441716-76.1747173Z"></path>
  <path class="cls-1" d="M341.645447,1089.1307751l-.4913541-548.1612328-89.8459395,29.7808736c-27.834464,9.2261782-46.6152349,35.2615517-46.5889501,64.5852462l.3228464,360.1717873c.0263973,29.4492336,19.012559,55.5322448,47.0286017,64.6074531l89.5747957,29.0158726Z"></path>
  <path class="cls-1" d="M136.8067555,1022.7775858l-.3713919-414.3298191-89.522634,29.1764098C18.9130014,646.7495954-.0263698,672.8666019.0000276,702.3158355l.2033307,226.8384246c.0263973,29.4492336,19.012559,55.5322448,47.0286017,64.6074531l89.5747957,29.0158726Z"></path>
</svg>
