<?xml version="1.0" encoding="UTF-8" standalone="no"?>
<!-- Created with Inkscape (http://www.inkscape.org/) -->

<svg
   width="15.999992mm"
   height="16.001221mm"
   viewBox="0 0 15.999992 16.001221"
   version="1.1"
   id="svg1"
   xml:space="preserve"
   sodipodi:docname="qlub.svg"
   inkscape:export-filename="qlub.png"
   inkscape:export-xdpi="96"
   inkscape:export-ydpi="96"
   inkscape:version="1.3.2 (091e20e, 2023-11-25)"
   xmlns:inkscape="http://www.inkscape.org/namespaces/inkscape"
   xmlns:sodipodi="http://sodipodi.sourceforge.net/DTD/sodipodi-0.dtd"
   xmlns:xlink="http://www.w3.org/1999/xlink"
   xmlns="http://www.w3.org/2000/svg"
   xmlns:svg="http://www.w3.org/2000/svg"><sodipodi:namedview
     id="namedview1"
     pagecolor="#ffffff"
     bordercolor="#000000"
     borderopacity="0.25"
     inkscape:showpageshadow="2"
     inkscape:pageopacity="0.0"
     inkscape:pagecheckerboard="0"
     inkscape:deskcolor="#d1d1d1"
     inkscape:document-units="mm"
     inkscape:zoom="0.5605125"
     inkscape:cx="-1221.2038"
     inkscape:cy="4458.4198"
     inkscape:window-width="1920"
     inkscape:window-height="1027"
     inkscape:window-x="1512"
     inkscape:window-y="25"
     inkscape:window-maximized="1"
     inkscape:current-layer="layer1"
     inkscape:export-bgcolor="#efffff00" /><defs
     id="defs1"><linearGradient
       id="paint0_linear_2_2"
       x1="61"
       y1="130"
       x2="61"
       y2="-91.5"
       gradientUnits="userSpaceOnUse"
       gradientTransform="matrix(0.26458333,0,0,0.26458333,-352.55094,1033.5101)"><stop
         offset="0.0755157"
         stop-color="#563ACC"
         id="stop4-3" /><stop
         offset="0.520094"
         stop-color="#6364FF"
         id="stop5-9" /></linearGradient><linearGradient
       inkscape:collect="always"
       xlink:href="#paint0_linear_2_2"
       id="linearGradient10"
       gradientUnits="userSpaceOnUse"
       gradientTransform="matrix(0.20158471,0,0,0.20158471,-308.48722,1125.97)"
       x1="61"
       y1="130"
       x2="61"
       y2="-91.5" /></defs><g
     inkscape:label="Calque 1"
     inkscape:groupmode="layer"
     id="layer1"
     transform="translate(304.29142,-1131.0722)"><path
       id="rect9-5"
       style="fill:url(#linearGradient10);stroke-width:0.201584"
       d="m -296.2914,1131.0723 a 8.0001424,8.0001424 0 0 0 -8,8 8.0001424,8.0001424 0 0 0 8,8.0012 8.0001424,8.0001424 0 0 0 3.15606,-0.652 c 1.66968,0.6421 2.96989,0.687 3.6868,0.6359 0.32809,-0.024 0.51132,-0.066 0.51892,-0.068 0.0838,-0.02 0.14817,-0.099 0.16497,-0.2031 0.0168,-0.104 -0.018,-0.2124 -0.0882,-0.2764 -0.86199,-0.7859 -1.30444,-1.5148 -1.53235,-2.0415 a 8.0001424,8.0001424 0 0 0 2.0938,-5.3959 8.0001424,8.0001424 0 0 0 -8,-8 z m -0.0158,2.7151 a 5.2457213,5.2457215 85.810999 0 1 5.24553,5.2456 5.2457213,5.2457215 85.810999 0 1 -5.24553,5.2458 5.2457213,5.2457215 85.810999 0 1 -5.24592,-5.2458 5.2457213,5.2457215 85.810999 0 1 5.24592,-5.2456 z" /></g></svg>
