<svg width="20" height="18" viewBox="0 0 20 18" fill="none" xmlns="http://www.w3.org/2000/svg">
<path d="M19.8047 8.32031C19.9219 8.4375 20 8.59375 20 8.75C20 8.94531 19.9219 9.10156 19.8047 9.21875L14.1797 14.8438C13.9453 15.0781 13.5156 15.0781 13.2812 14.8438C13.0469 14.6094 13.0469 14.1797 13.2812 13.9453L17.8516 9.375H6.875C6.52344 9.375 6.25 9.10156 6.25 8.75C6.25 8.4375 6.52344 8.125 6.875 8.125H17.8516L13.2812 3.59375C13.0469 3.35938 13.0469 2.92969 13.2812 2.69531C13.5156 2.46094 13.9453 2.46094 14.1797 2.69531L19.8047 8.32031ZM6.875 16.25C7.1875 16.25 7.5 16.5625 7.5 16.875C7.5 17.2266 7.1875 17.5 6.875 17.5H3.125C1.36719 17.5 0 16.1328 0 14.375V3.125C0 1.40625 1.36719 0 3.125 0H6.875C7.1875 0 7.5 0.3125 7.5 0.625C7.5 0.976562 7.1875 1.25 6.875 1.25H3.125C2.07031 1.25 1.25 2.10938 1.25 3.125V14.375C1.25 15.4297 2.07031 16.25 3.125 16.25H6.875Z" fill="#232933"/>
</svg>
