<svg width="20" height="17" viewBox="0 0 20 17" fill="none" xmlns="http://www.w3.org/2000/svg">
<path d="M12.75 1.0625H11.6875V2.92188C11.6875 3.68555 11.0898 4.25 10.3594 4.25H8.76562C8.00195 4.25 7.4375 3.68555 7.4375 2.92188V1.0625H6.375C5.77734 1.0625 5.3125 1.56055 5.3125 2.125V6.375H4.25V2.125C4.25 0.962891 5.17969 0 6.375 0H12.75C13.9121 0 14.875 0.962891 14.875 2.125V6.375H13.8125V2.125C13.8125 1.56055 13.3145 1.0625 12.75 1.0625ZM8.5 1.0625V2.92188C8.5 3.08789 8.59961 3.1875 8.76562 3.1875H10.3594C10.4922 3.1875 10.625 3.08789 10.625 2.92188V1.0625H8.5ZM10.8574 17C11.123 16.7012 11.3555 16.3359 11.4883 15.9375H17C17.5645 15.9375 18.0625 15.4727 18.0625 14.875V9.5625C18.0625 8.99805 17.5645 8.5 17 8.5H15.9375V10.3594C15.9375 11.123 15.3398 11.6875 14.6094 11.6875H13.0156C12.252 11.6875 11.6875 11.123 11.6875 10.3594V8.5H11.4883C11.3555 8.13477 11.123 7.76953 10.8574 7.4375H17C18.1621 7.4375 19.125 8.40039 19.125 9.5625V14.875C19.125 16.0703 18.1621 17 17 17H10.8574ZM12.75 8.5V10.3594C12.75 10.5254 12.8496 10.625 13.0156 10.625H14.6094C14.7422 10.625 14.875 10.5254 14.875 10.3594V8.5H12.75ZM8.5 8.5H7.4375V10.3594C7.4375 11.123 6.83984 11.6875 6.10938 11.6875H4.51562C3.75195 11.6875 3.1875 11.123 3.1875 10.3594V8.5H2.125C1.52734 8.5 1.0625 8.99805 1.0625 9.5625V14.875C1.0625 15.4727 1.52734 15.9375 2.125 15.9375H8.5C9.06445 15.9375 9.5625 15.4727 9.5625 14.875V9.5625C9.5625 8.99805 9.06445 8.5 8.5 8.5ZM4.25 10.3594C4.25 10.5254 4.34961 10.625 4.51562 10.625H6.10938C6.24219 10.625 6.375 10.5254 6.375 10.3594V8.5H4.25V10.3594ZM8.5 7.4375C9.66211 7.4375 10.625 8.40039 10.625 9.5625V14.875C10.625 16.0703 9.66211 17 8.5 17H2.125C0.929688 17 0 16.0703 0 14.875V9.5625C0 8.40039 0.929688 7.4375 2.125 7.4375H8.5Z" fill="white"/>
</svg>
