<svg width="20" height="18" viewBox="0 0 20 18" fill="none" xmlns="http://www.w3.org/2000/svg">
<path d="M1.875 0.9375V14.6875C1.875 15.2344 2.26562 15.625 2.8125 15.625H19.0625C19.5703 15.625 20 16.0547 20 16.5625C20 17.1094 19.5703 17.5 19.0625 17.5H2.8125C1.25 17.5 0 16.25 0 14.6875V0.9375C0 0.429688 0.390625 0 0.9375 0C1.44531 0 1.875 0.429688 1.875 0.9375ZM12.5 4.6875C12.5 4.17969 12.8906 3.75 13.4375 3.75H17.7734C18.3203 3.75 18.7109 4.17969 18.7109 4.6875V9.0625C18.7109 9.60938 18.3203 10 17.7734 10C17.2656 10 16.8359 9.60938 16.8359 9.0625V6.95312L12.5 11.2891C12.1484 11.6797 11.5625 11.6797 11.2109 11.2891L8.125 8.20312L5.66406 10.6641C5.27344 11.0547 4.6875 11.0547 4.33594 10.6641C3.94531 10.3125 3.94531 9.72656 4.33594 9.375L7.46094 6.25C7.8125 5.85938 8.39844 5.85938 8.78906 6.25L11.875 9.33594L15.5469 5.625H13.4375C12.8906 5.625 12.5 5.23438 12.5 4.6875Z" fill="black"/>
</svg>
