<svg width="26" height="26" viewBox="0 0 26 26" fill="none" xmlns="http://www.w3.org/2000/svg">
<path d="M9.14062 9.19141C9.44531 8.88672 10.0039 8.88672 10.3086 9.19141L13 11.8828L15.6406 9.19141C15.9453 8.88672 16.5039 8.88672 16.8086 9.19141C17.1133 9.49609 17.1133 10.0547 16.8086 10.3594L14.1172 13L16.8086 15.6914C17.1133 15.9961 17.1133 16.5547 16.8086 16.8594C16.5039 17.1641 15.9453 17.1641 15.6406 16.8594L13 14.168L10.3086 16.8594C10.0039 17.1641 9.44531 17.1641 9.14062 16.8594C8.83594 16.5547 8.83594 15.9961 9.14062 15.6914L11.832 13L9.14062 10.3594C8.83594 10.0547 8.83594 9.49609 9.14062 9.19141ZM26 13C26 20.2109 20.1602 26 13 26C5.78906 26 0 20.2109 0 13C0 5.83984 5.78906 0 13 0C20.1602 0 26 5.83984 26 13ZM13 1.625C6.70312 1.625 1.625 6.75391 1.625 13C1.625 19.2969 6.70312 24.375 13 24.375C19.2461 24.375 24.375 19.2969 24.375 13C24.375 6.75391 19.2461 1.625 13 1.625Z" fill="black"/>
</svg>
