<svg width="32" height="31" viewBox="0 0 32 31" fill="none" xmlns="http://www.w3.org/2000/svg">
<path d="M16 3.5625C11.6055 3.5625 7.62109 5.90625 5.39453 9.65625C3.22656 13.4648 3.22656 18.0938 5.39453 21.8438C7.62109 25.6523 11.6055 27.9375 16 27.9375C20.3359 27.9375 24.3203 25.6523 26.5469 21.8438C28.7148 18.0938 28.7148 13.4648 26.5469 9.65625C24.3203 5.90625 20.3359 3.5625 16 3.5625ZM16 30.75C10.6094 30.75 5.6875 27.9375 2.99219 23.25C0.296875 18.6211 0.296875 12.9375 2.99219 8.25C5.6875 3.62109 10.6094 0.75 16 0.75C21.332 0.75 26.2539 3.62109 28.9492 8.25C31.6445 12.9375 31.6445 18.6211 28.9492 23.25C26.2539 27.9375 21.332 30.75 16 30.75ZM13.6562 20.4375H15.0625V16.6875H13.6562C12.8359 16.6875 12.25 16.1016 12.25 15.2812C12.25 14.5195 12.8359 13.875 13.6562 13.875H16.4688C17.2305 13.875 17.875 14.5195 17.875 15.2812V20.4375H18.3438C19.1055 20.4375 19.75 21.082 19.75 21.8438C19.75 22.6641 19.1055 23.25 18.3438 23.25H13.6562C12.8359 23.25 12.25 22.6641 12.25 21.8438C12.25 21.082 12.8359 20.4375 13.6562 20.4375ZM16 12C14.9453 12 14.125 11.1797 14.125 10.125C14.125 9.12891 14.9453 8.25 16 8.25C16.9961 8.25 17.875 9.12891 17.875 10.125C17.875 11.1797 16.9961 12 16 12Z" fill="#3FA7E8"/>
</svg>