<svg width="14" height="14" viewBox="0 0 14 14" fill="none" xmlns="http://www.w3.org/2000/svg">
<path d="M7.01367 1.3125C4.96289 1.3125 3.10352 2.40625 2.06445 4.15625C1.05273 5.93359 1.05273 8.09375 2.06445 9.84375C3.10352 11.6211 4.96289 12.6875 7.01367 12.6875C9.03711 12.6875 10.8965 11.6211 11.9355 9.84375C12.9473 8.09375 12.9473 5.93359 11.9355 4.15625C10.8965 2.40625 9.03711 1.3125 7.01367 1.3125ZM7.01367 14C4.49805 14 2.20117 12.6875 0.943359 10.5C-0.314453 8.33984 -0.314453 5.6875 0.943359 3.5C2.20117 1.33984 4.49805 0 7.01367 0C9.50195 0 11.7988 1.33984 13.0566 3.5C14.3145 5.6875 14.3145 8.33984 13.0566 10.5C11.7988 12.6875 9.50195 14 7.01367 14ZM5.91992 9.1875H6.57617V7.4375H5.91992C5.53711 7.4375 5.26367 7.16406 5.26367 6.78125C5.26367 6.42578 5.53711 6.125 5.91992 6.125H7.23242C7.58789 6.125 7.88867 6.42578 7.88867 6.78125V9.1875H8.10742C8.46289 9.1875 8.76367 9.48828 8.76367 9.84375C8.76367 10.2266 8.46289 10.5 8.10742 10.5H5.91992C5.53711 10.5 5.26367 10.2266 5.26367 9.84375C5.26367 9.48828 5.53711 9.1875 5.91992 9.1875ZM7.01367 5.25C6.52148 5.25 6.13867 4.86719 6.13867 4.375C6.13867 3.91016 6.52148 3.5 7.01367 3.5C7.47852 3.5 7.88867 3.91016 7.88867 4.375C7.88867 4.86719 7.47852 5.25 7.01367 5.25Z" fill="black" fill-opacity="0.5"/>
</svg>
