<svg width="13" height="14" viewBox="0 0 13 14" fill="none" xmlns="http://www.w3.org/2000/svg">
<path d="M5.89062 8.85938V7.23438H4.26562C3.91016 7.23438 3.65625 6.98047 3.65625 6.625C3.65625 6.29492 3.91016 6.01562 4.26562 6.01562H5.89062V4.39062C5.89062 4.06055 6.14453 3.78125 6.5 3.78125C6.83008 3.78125 7.10938 4.06055 7.10938 4.39062V6.01562H8.73438C9.06445 6.01562 9.34375 6.29492 9.34375 6.625C9.34375 6.98047 9.06445 7.23438 8.73438 7.23438H7.10938V8.85938C7.10938 9.21484 6.83008 9.46875 6.5 9.46875C6.14453 9.46875 5.89062 9.21484 5.89062 8.85938ZM13 6.625C13 10.2305 10.0801 13.125 6.5 13.125C2.89453 13.125 0 10.2305 0 6.625C0 3.04492 2.89453 0.125 6.5 0.125C10.0801 0.125 13 3.04492 13 6.625ZM6.5 1.34375C3.58008 1.34375 1.21875 3.73047 1.21875 6.625C1.21875 9.54492 3.58008 11.9062 6.5 11.9062C9.39453 11.9062 11.7812 9.54492 11.7812 6.625C11.7812 3.73047 9.39453 1.34375 6.5 1.34375Z" fill="white"/>
</svg>
