<svg width="17" height="16" viewBox="0 0 17 16" fill="none" xmlns="http://www.w3.org/2000/svg">
<path d="M8.5 15.875C5.80469 15.875 3.34375 14.4688 1.99609 12.125C0.648438 9.81055 0.648438 6.96875 1.99609 4.625C3.34375 2.31055 5.80469 0.875 8.5 0.875C11.166 0.875 13.627 2.31055 14.9746 4.625C16.3223 6.96875 16.3223 9.81055 14.9746 12.125C13.627 14.4688 11.166 15.875 8.5 15.875ZM4.95508 7.26172C4.80859 7.37891 4.75 7.55469 4.75 7.73047C4.75 8.08203 5.04297 8.375 5.39453 8.375H7.09375V11.1875C7.09375 11.7148 7.50391 12.125 8.03125 12.125H8.96875C9.4668 12.125 9.90625 11.7148 9.90625 11.1875V8.375H11.5762C11.957 8.375 12.25 8.08203 12.25 7.73047C12.25 7.55469 12.1621 7.37891 12.0156 7.26172L8.88086 4.33203C8.79297 4.21484 8.64648 4.15625 8.5 4.15625C8.32422 4.15625 8.20703 4.21484 8.08984 4.33203L4.95508 7.26172Z" fill="#16A545"/>
</svg>
