<svg width="13" height="15" viewBox="0 0 13 15" fill="none" xmlns="http://www.w3.org/2000/svg">
<path d="M1.21875 7.625C1.21875 9.5293 2.20898 11.2559 3.85938 12.2207C5.48438 13.1602 7.49023 13.1602 9.14062 12.2207C10.7656 11.2559 11.7812 9.5293 11.7812 7.625C11.7812 5.74609 10.7656 4.01953 9.14062 3.05469C7.49023 2.11523 5.48438 2.11523 3.85938 3.05469C2.20898 4.01953 1.21875 5.74609 1.21875 7.625ZM13 7.625C13 9.96094 11.7559 12.0938 9.75 13.2617C7.71875 14.4297 5.25586 14.4297 3.25 13.2617C1.21875 12.0938 0 9.96094 0 7.625C0 5.31445 1.21875 3.18164 3.25 2.01367C5.25586 0.845703 7.71875 0.845703 9.75 2.01367C11.7559 3.18164 13 5.31445 13 7.625ZM5.50977 10.6973L2.9707 7.98047C2.89453 7.9043 2.84375 7.77734 2.84375 7.625C2.84375 7.49805 2.89453 7.37109 2.9707 7.29492L5.50977 4.57812C5.61133 4.45117 5.76367 4.375 5.91602 4.375C6.24609 4.375 6.5 4.62891 6.5 4.95898V6.40625H8.9375C9.36914 6.40625 9.75 6.78711 9.75 7.21875V8.03125C9.75 8.48828 9.36914 8.84375 8.9375 8.84375H6.5V10.3164C6.5 10.6211 6.24609 10.875 5.91602 10.875C5.76367 10.875 5.61133 10.8242 5.50977 10.6973Z" fill="#2E363B"/>
</svg>
