<svg width="25" height="20" viewBox="0 0 25 20" fill="none" xmlns="http://www.w3.org/2000/svg">
<path d="M16.1719 1.21601L10.5469 19.341C10.3906 19.8098 9.88281 20.0832 9.375 19.927C8.90625 19.7707 8.63281 19.2629 8.78906 18.7551L14.4141 0.630076C14.5703 0.161326 15.0781 -0.112111 15.5859 0.0441389C16.0547 0.200389 16.3281 0.708201 16.1719 1.21601ZM19.6875 4.61445L24.6875 9.30195C24.8828 9.4582 25 9.73164 25 9.96601C25 10.2395 24.8828 10.4738 24.6875 10.6691L19.6875 15.3566C19.2969 15.7082 18.7109 15.7082 18.3594 15.3176C18.0078 14.927 18.0078 14.341 18.3984 13.9895L22.6562 9.96601L18.3984 5.98164C18.0078 5.63008 18.0078 5.04414 18.3594 4.65351C18.7109 4.26289 19.2969 4.26289 19.6875 4.61445ZM6.5625 5.98164L2.30469 9.96601L6.5625 13.9895C6.95312 14.341 6.95312 14.927 6.60156 15.3176C6.25 15.7082 5.66406 15.7082 5.27344 15.3566L0.273438 10.6691C0.078125 10.4738 0 10.2395 0 9.96601C0 9.73164 0.078125 9.4582 0.273438 9.30195L5.27344 4.61445C5.66406 4.26289 6.25 4.26289 6.60156 4.65351C6.95312 5.04414 6.95312 5.63008 6.5625 5.98164Z" fill="black"/>
</svg>
