<svg class="svg-icon" style="width: 2em; height: 2em; display: inline-block; fill: #fff; overflow: hidden;" viewBox="0 0 1024 1024" xmlns="http://www.w3.org/2000/svg">
  <path d="M807.22 518.53h-74.98c-10.37 0-20.01 5.36-25.48 14.17l-62.87 101.17H383.42L320.55 532.7a29.997 29.997 0 0 0-25.48-14.17h-74.98c-66.17 0-120 53.83-120 120v164.83c0 66.17 53.83 120 120 120H512.5c0.39 0 0.77-0.01 1.15-0.03 0.38 0.01 0.77 0.03 1.15 0.03h292.41c66.17 0 120-53.83 120-120V638.53c0.01-66.17-53.82-120-119.99-120z m60 284.83c0 33.08-26.92 60-60 60H514.81c-0.39 0-0.77 0.01-1.15 0.03-0.38-0.01-0.77-0.03-1.15-0.03H220.09c-33.08 0-60-26.92-60-60V638.53c0-33.08 26.92-60 60-60h58.3l62.87 101.17a29.997 29.997 0 0 0 25.48 14.17h293.82c10.37 0 20.01-5.36 25.48-14.17l62.87-101.17h58.3c33.08 0 60 26.92 60 60v164.83zM217.81 459.92c16.57 0 30-13.43 30-30v-87.29h528.38v87.29c0 16.57 13.43 30 30 30s30-13.43 30-30V312.64c0-16.57-13.43-30-30-30H217.81c-16.57 0-30 13.43-30 30v117.29c0 16.56 13.43 29.99 30 29.99zM294.05 226.02c16.57 0 30-13.43 30-30v-37.04h397.78v37.04c0 16.57 13.43 30 30 30s30-13.43 30-30v-67.04c0-16.57-13.43-30-30-30H294.05c-16.57 0-30 13.43-30 30v67.04c0 16.57 13.43 30 30 30z" />
  <path d="M323.25 414.93h-0.08c-16.53 0-29.95 13.38-30 29.92-0.04 16.57 13.35 30.04 29.92 30.08l371.76 1h0.08c16.53 0 29.95-13.38 30-29.92 0.04-16.57-13.35-30.04-29.92-30.08l-371.76-1z" />
</svg>
