<svg width="18" height="21" viewBox="0 0 18 21" fill="none" xmlns="http://www.w3.org/2000/svg">
<path d="M6.75 14.875H15.5C15.8125 14.875 16.125 14.6016 16.125 14.25V5.5H14.25C13.5469 5.5 13 4.95312 13 4.25V2.375H6.75C6.39844 2.375 6.125 2.6875 6.125 3V14.25C6.125 14.6016 6.39844 14.875 6.75 14.875ZM15.5 16.75H6.75C5.34375 16.75 4.25 15.6562 4.25 14.25V3C4.25 1.63281 5.34375 0.5 6.75 0.5H13.1953C13.8594 0.5 14.4844 0.773438 14.9531 1.24219L17.2578 3.54688C17.7266 4.01562 18 4.64062 18 5.30469V14.25C18 15.6562 16.8672 16.75 15.5 16.75ZM1.4375 4.25C1.94531 4.25 2.375 4.67969 2.375 5.1875V15.1875C2.375 17.1016 3.89844 18.625 5.8125 18.625H13.3125C13.8203 18.625 14.25 19.0547 14.25 19.5625C14.25 20.1094 13.8203 20.5 13.3125 20.5H5.8125C2.84375 20.5 0.5 18.1562 0.5 15.1875V5.1875C0.5 4.67969 0.890625 4.25 1.4375 4.25Z" fill="#2E363B"/>
</svg>
