<svg width="18" height="18" viewBox="0 0 18 18" fill="none" xmlns="http://www.w3.org/2000/svg">
<path d="M4.375 11.25C4.375 12.3047 5.19531 13.125 6.25 13.125H10V11.875C10 10.8594 10.8203 10 11.875 10H15.625C16.6406 10 17.5 10.8594 17.5 11.875V15.625C17.5 16.6797 16.6406 17.5 15.625 17.5H11.875C10.8203 17.5 10 16.6797 10 15.625V14.375H6.25C4.49219 14.375 3.125 13.0078 3.125 11.25V7.5H1.875C0.820312 7.5 0 6.67969 0 5.625V1.875C0 0.859375 0.820312 0 1.875 0H5.625C6.64062 0 7.5 0.859375 7.5 1.875V5.625C7.5 6.67969 6.64062 7.5 5.625 7.5H4.375V11.25ZM5.625 1.25H1.875C1.52344 1.25 1.25 1.5625 1.25 1.875V5.625C1.25 5.97656 1.52344 6.25 1.875 6.25H5.625C5.9375 6.25 6.25 5.97656 6.25 5.625V1.875C6.25 1.5625 5.9375 1.25 5.625 1.25ZM11.25 15.625C11.25 15.9766 11.5234 16.25 11.875 16.25H15.625C15.9375 16.25 16.25 15.9766 16.25 15.625V11.875C16.25 11.5625 15.9375 11.25 15.625 11.25H11.875C11.5234 11.25 11.25 11.5625 11.25 11.875V15.625Z" fill="black" fill-opacity="0.5"/>
</svg>
