<svg width="23" height="19" viewBox="0 0 23 19" fill="none" xmlns="http://www.w3.org/2000/svg">
<path d="M11.75 2.625C9.17188 2.625 7.10156 3.79688 5.5 5.28125C3.97656 6.6875 2.96094 8.32812 2.41406 9.5C2.96094 10.6719 3.97656 12.3516 5.5 13.7578C7.10156 15.2422 9.17188 16.375 11.75 16.375C14.2891 16.375 16.3594 15.2422 17.9609 13.7578C19.4844 12.3516 20.5391 10.6719 21.0469 9.5C20.5391 8.32812 19.4844 6.6875 18 5.28125C16.3594 3.79688 14.2891 2.625 11.75 2.625ZM4.21094 3.91406C6.04688 2.19531 8.58594 0.75 11.75 0.75C14.875 0.75 17.4141 2.19531 19.25 3.91406C21.0859 5.63281 22.2969 7.625 22.8828 9.03125C23 9.34375 23 9.69531 22.8828 10.0078C22.2969 11.375 21.0859 13.4062 19.25 15.125C17.4141 16.8438 14.875 18.25 11.75 18.25C8.58594 18.25 6.04688 16.8438 4.21094 15.125C2.375 13.4062 1.16406 11.375 0.578125 10.0078C0.460938 9.69531 0.460938 9.34375 0.578125 9.03125C1.16406 7.625 2.375 5.59375 4.21094 3.91406ZM11.75 12.625C13.4688 12.625 14.875 11.2578 14.875 9.5C14.875 7.78125 13.4688 6.375 11.75 6.375C11.7109 6.375 11.6719 6.375 11.6719 6.375C11.7109 6.60938 11.75 6.80469 11.75 7C11.75 8.40625 10.6172 9.5 9.25 9.5C9.01562 9.5 8.82031 9.5 8.625 9.42188C8.625 9.46094 8.625 9.5 8.625 9.5C8.625 11.2578 9.99219 12.625 11.75 12.625ZM11.75 4.5C13.5078 4.5 15.1484 5.47656 16.0469 7C16.9453 8.5625 16.9453 10.4766 16.0469 12C15.1484 13.5625 13.5078 14.5 11.75 14.5C9.95312 14.5 8.3125 13.5625 7.41406 12C6.51562 10.4766 6.51562 8.5625 7.41406 7C8.3125 5.47656 9.95312 4.5 11.75 4.5Z" fill="black"/>
</svg>
