<svg width="12" height="16" viewBox="0 0 12 16" fill="none" xmlns="http://www.w3.org/2000/svg">
<path d="M11.4062 3.9375C11.7812 4.3125 12 4.8125 12 5.34375V14C12 15.125 11.0938 16 10 16H2C0.875 16 0 15.125 0 14V2C0 0.90625 0.875 0 2 0H6.65625C7.1875 0 7.6875 0.21875 8.0625 0.59375L11.4062 3.9375ZM7 1.09375V4.5C7 4.78125 7.21875 5 7.5 5H10.9062C10.875 4.875 10.8125 4.75 10.6875 4.625L7.375 1.3125C7.25 1.1875 7.125 1.125 7 1.09375ZM11 14V6H7.5C6.65625 6 6 5.34375 6 4.5V1H2C1.4375 1 1 1.46875 1 2V14C1 14.5625 1.4375 15 2 15H10C10.5312 15 11 14.5625 11 14ZM3 8.5C3 8.25 3.21875 8 3.5 8H8.5C8.75 8 9 8.25 9 8.5C9 8.78125 8.75 9 8.5 9H3.5C3.21875 9 3 8.78125 3 8.5ZM8.5 10C8.75 10 9 10.25 9 10.5C9 10.7812 8.75 11 8.5 11H3.5C3.21875 11 3 10.7812 3 10.5C3 10.25 3.21875 10 3.5 10H8.5ZM8.5 12C8.75 12 9 12.25 9 12.5C9 12.7812 8.75 13 8.5 13H3.5C3.21875 13 3 12.7812 3 12.5C3 12.25 3.21875 12 3.5 12H8.5Z" fill="#FF3C26"/>
</svg>
