<svg width="18" height="20" viewBox="0 0 18 20" fill="none" xmlns="http://www.w3.org/2000/svg">
<path d="M6.25 14.375H15C15.3125 14.375 15.625 14.1016 15.625 13.75V5H13.75C13.0469 5 12.5 4.45312 12.5 3.75V1.875H6.25C5.89844 1.875 5.625 2.1875 5.625 2.5V13.75C5.625 14.1016 5.89844 14.375 6.25 14.375ZM15 16.25H6.25C4.84375 16.25 3.75 15.1562 3.75 13.75V2.5C3.75 1.13281 4.84375 0 6.25 0H12.6953C13.3594 0 13.9844 0.273438 14.4531 0.742188L16.7578 3.04688C17.2266 3.51562 17.5 4.14062 17.5 4.80469V13.75C17.5 15.1562 16.3672 16.25 15 16.25ZM0.9375 3.75C1.44531 3.75 1.875 4.17969 1.875 4.6875V14.6875C1.875 16.6016 3.39844 18.125 5.3125 18.125H12.8125C13.3203 18.125 13.75 18.5547 13.75 19.0625C13.75 19.6094 13.3203 20 12.8125 20H5.3125C2.34375 20 0 17.6562 0 14.6875V4.6875C0 4.17969 0.390625 3.75 0.9375 3.75Z" fill="black"/>
</svg>
