<svg width="20" height="15" viewBox="0 0 20 15" fill="none" xmlns="http://www.w3.org/2000/svg">
<path d="M18.793 5.97656C19.0918 6.375 19.1914 6.90625 18.9922 7.4043L17 13.7793C16.8008 14.4434 16.2031 14.875 15.5059 14.875H2.125C0.929688 14.875 0 13.9453 0 12.75V2.125C0 0.962891 0.929688 0 2.125 0H6.00977C6.57422 0 7.10547 0.232422 7.50391 0.630859L9.03125 2.125H14.875C16.0371 2.125 17 3.08789 17 4.25H15.9375C15.9375 3.68555 15.4395 3.1875 14.875 3.1875H8.56641L6.77344 1.39453C6.57422 1.19531 6.30859 1.0625 6.00977 1.0625H2.125C1.52734 1.0625 1.0625 1.56055 1.0625 2.125V11.4219L2.95508 6.375C3.1875 5.74414 3.78516 5.3125 4.44922 5.3125H17.498C18.0293 5.3125 18.4941 5.57812 18.793 5.97656ZM18.0293 7.07227C18.0625 6.90625 18.0293 6.74023 17.9297 6.60742C17.8301 6.47461 17.6973 6.375 17.5312 6.375H4.44922C4.2168 6.375 4.01758 6.54102 3.95117 6.74023L1.56055 13.1152C1.49414 13.2812 1.52734 13.4473 1.62695 13.6133C1.66016 13.6797 1.72656 13.7129 1.79297 13.7793C1.89258 13.8125 1.99219 13.8125 2.125 13.8125H15.5059C15.7715 13.8125 15.9707 13.6797 16.0371 13.4473L18.0293 7.07227Z" fill="white"/>
</svg>
