<svg width="20" height="20" viewBox="0 0 20 20" fill="none" xmlns="http://www.w3.org/2000/svg">
<path d="M10.0195 18.125C10.293 18.125 11.0742 17.8516 11.8555 16.25C12.207 15.5469 12.5195 14.7266 12.7148 13.75H7.28516C7.51953 14.7266 7.79297 15.5469 8.14453 16.25C8.96484 17.8516 9.70703 18.125 10.0195 18.125ZM6.97266 11.875H13.0273C13.1055 11.2891 13.1445 10.6641 13.1445 10C13.1445 9.375 13.1055 8.75 13.0273 8.125H6.97266C6.89453 8.75 6.89453 9.375 6.89453 10C6.89453 10.6641 6.89453 11.2891 6.97266 11.875ZM7.28516 6.25H12.7148C12.5195 5.3125 12.207 4.49219 11.8555 3.78906C11.0742 2.1875 10.293 1.875 10.0195 1.875C9.70703 1.875 8.96484 2.1875 8.14453 3.78906C7.79297 4.49219 7.51953 5.3125 7.28516 6.25ZM14.9023 8.125C14.9805 8.75 14.9805 9.375 14.9805 10C14.9805 10.6641 14.9805 11.2891 14.9023 11.875H17.9102C18.0664 11.2891 18.1445 10.6641 18.1445 10C18.1445 9.375 18.0664 8.75 17.9102 8.125H14.9023ZM17.207 6.25C16.3867 4.64844 15.0195 3.35938 13.3789 2.61719C13.9258 3.63281 14.3555 4.88281 14.6289 6.25H17.207ZM5.37109 6.25C5.64453 4.88281 6.07422 3.63281 6.62109 2.61719C4.98047 3.35938 3.61328 4.64844 2.79297 6.25H5.37109ZM2.08984 8.125C1.97266 8.75 1.89453 9.375 1.89453 10C1.89453 10.6641 1.93359 11.2891 2.08984 11.875H5.09766C5.01953 11.2891 5.01953 10.6641 5.01953 10C5.01953 9.375 5.01953 8.75 5.09766 8.125H2.08984ZM13.3789 17.4219C15.0195 16.6797 16.3867 15.3906 17.207 13.75H14.6289C14.3555 15.1562 13.9258 16.4062 13.3789 17.4219ZM6.62109 17.4219C6.07422 16.4062 5.64453 15.1562 5.37109 13.75H2.79297C3.61328 15.3906 4.98047 16.6797 6.62109 17.4219ZM10.0195 20C6.42578 20 3.14453 18.125 1.34766 15C-0.449219 11.9141 -0.449219 8.125 1.34766 5C3.14453 1.91406 6.42578 0 10.0195 0C13.5742 0 16.8555 1.91406 18.6523 5C20.4492 8.125 20.4492 11.9141 18.6523 15C16.8555 18.125 13.5742 20 10.0195 20Z" fill="black"/>
</svg>
