<svg width="20" height="20" fill="none" xmlns="http://www.w3.org/2000/svg"><path d="M10.02 18.125c.273 0 1.054-.273 1.835-1.875a9.855 9.855 0 00.86-2.5h-5.43c.235.977.508 1.797.86 2.5.82 1.602 1.562 1.875 1.875 1.875zm-3.047-6.25h6.054a15.088 15.088 0 000-3.75H6.973c-.078.625-.078 1.25-.078 1.875 0 .664 0 1.29.078 1.875zm.312-5.625h5.43a10.096 10.096 0 00-.86-2.46c-.78-1.603-1.562-1.915-1.835-1.915-.313 0-1.055.313-1.875 1.914-.352.703-.625 1.523-.86 2.461zm7.617 1.875c.079.625.079 1.25.079 1.875 0 .664 0 1.29-.079 1.875h3.008c.156-.586.235-1.21.235-1.875 0-.625-.079-1.25-.235-1.875h-3.008zm2.305-1.875a8.037 8.037 0 00-3.828-3.633c.547 1.016.976 2.266 1.25 3.633h2.578zm-11.836 0c.274-1.367.703-2.617 1.25-3.633A8.037 8.037 0 002.793 6.25h2.578zM2.09 8.125c-.117.625-.195 1.25-.195 1.875 0 .664.039 1.29.195 1.875h3.008c-.078-.586-.078-1.21-.078-1.875 0-.625 0-1.25.078-1.875H2.09zm11.289 9.297a7.94 7.94 0 003.828-3.672h-2.578c-.274 1.406-.703 2.656-1.25 3.672zm-6.758 0c-.547-1.016-.976-2.266-1.25-3.672H2.793a7.94 7.94 0 003.828 3.672zM10.02 20c-3.594 0-6.875-1.875-8.672-5-1.797-3.086-1.797-6.875 0-10 1.797-3.086 5.078-5 8.672-5 3.554 0 6.835 1.914 8.632 5 1.797 3.125 1.797 6.914 0 10a9.925 9.925 0 01-8.633 5z" fill="#ffffff"/></svg>