<svg width="20" height="18" viewBox="0 0 20 18" fill="none" xmlns="http://www.w3.org/2000/svg">
<path d="M19.3633 8.16797C19.5957 8.36719 19.5957 8.69922 19.3965 8.93164C19.2305 9.16406 18.8984 9.16406 18.666 8.96484L17.4375 7.86914V14.4102C17.4375 15.9043 16.2422 17.0664 14.7812 17.0664H5.21875C3.72461 17.0664 2.5625 15.9043 2.5625 14.4102V7.86914L1.30078 8.96484C1.06836 9.16406 0.736328 9.16406 0.570312 8.93164C0.371094 8.69922 0.371094 8.36719 0.603516 8.16797L9.63477 0.232422C9.83398 0.0332031 10.1328 0.0332031 10.332 0.232422L19.3633 8.16797ZM5.21875 16.0039H7.34375V10.6914C7.34375 10.127 7.80859 9.62891 8.40625 9.62891H11.5938C12.1582 9.62891 12.6562 10.127 12.6562 10.6914V16.0039H14.7812C15.6445 16.0039 16.375 15.3066 16.375 14.4102V6.93945L10 1.32812L3.625 6.93945V14.4102C3.625 15.3066 4.32227 16.0039 5.21875 16.0039ZM8.40625 16.0039H11.5938V10.6914H8.40625V16.0039Z" fill="white"/>
</svg>
