<svg width="133" height="34" viewBox="0 0 133 34" fill="none" xmlns="http://www.w3.org/2000/svg">
<path d="M30.8462 7.74494C30.3689 4.17768 27.2765 1.36166 23.6154 0.819927C22.9959 0.727934 20.655 0.390625 15.2319 0.390625H15.1913C9.76309 0.390625 8.60025 0.727934 7.98075 0.819927C4.41612 1.35144 1.16632 3.87615 0.37418 7.48943C-0.00157961 9.26797 -0.0422023 11.2407 0.0288874 13.0499C0.130444 15.6462 0.150755 18.2322 0.384335 20.8182C0.546825 22.5354 0.826107 24.2373 1.22726 25.9136C1.97877 29.0107 5.01532 31.5866 7.99095 32.6342C11.1747 33.7279 14.6023 33.9119 17.8825 33.1606C18.243 33.0738 18.5985 32.9767 18.954 32.8642C19.7512 32.6087 20.6855 32.3225 21.3761 31.8216C21.3863 31.8165 21.3913 31.8063 21.3964 31.7961C21.4015 31.7859 21.4065 31.7756 21.4065 31.7603V29.256C21.4065 29.256 21.4065 29.2356 21.3964 29.2254C21.3964 29.2152 21.3863 29.2049 21.3761 29.1998C21.3659 29.1947 21.3558 29.1896 21.3457 29.1845C21.3354 29.1845 21.3253 29.1845 21.3152 29.1845C19.2129 29.6905 17.0549 29.946 14.8968 29.9409C11.1747 29.9409 10.1744 28.1623 9.89004 27.4264C9.66152 26.7876 9.51428 26.118 9.45335 25.4435C9.45335 25.4332 9.45334 25.423 9.45842 25.4128C9.45842 25.4026 9.46857 25.3923 9.47876 25.3872C9.48887 25.3821 9.49901 25.377 9.50916 25.3719H9.54473C11.6114 25.8727 13.7339 26.1283 15.8615 26.1283C16.3744 26.1283 16.8822 26.1283 17.3951 26.113C19.5328 26.0516 21.7874 25.9443 23.8947 25.5303C23.9454 25.5201 24.0013 25.5099 24.047 25.4997C27.3679 24.8557 30.5263 22.8421 30.8462 17.7416C30.8564 17.5423 30.8869 15.636 30.8869 15.4315C30.8869 14.7211 31.1153 10.4077 30.8513 7.75522L30.8462 7.74494Z" fill="url(#paint0_linear_0_1)"/>
<path d="M33.8368 11.3585V20.0059H30.46V11.614C30.46 9.84573 29.7288 8.95132 28.2613 8.95132C26.6415 8.95132 25.824 10.0195 25.824 12.12V16.7145H22.4726V12.12C22.4726 10.0092 21.6652 8.95132 20.0352 8.95132C18.5729 8.95132 17.8365 9.84573 17.8365 11.614V20.0008H14.4648V11.3585C14.4648 9.59526 14.9066 8.18981 15.7952 7.14726C16.7143 6.10464 17.9178 5.57823 19.4056 5.57823C21.132 5.57823 22.4421 6.25285 23.3054 7.60207L24.1483 9.03313L24.9912 7.60207C25.8544 6.25798 27.1595 5.57823 28.891 5.57823C30.3788 5.57823 31.5822 6.1098 32.5013 7.14726C33.3899 8.18981 33.8317 9.58506 33.8317 11.3585H33.8368ZM45.4548 15.6566C46.1555 14.9053 46.4858 13.9752 46.4858 12.8406C46.4858 11.706 46.1504 10.7657 45.4548 10.0502C44.7846 9.29888 43.9316 8.94108 42.9007 8.94108C41.8699 8.94108 41.0219 9.29888 40.3466 10.0502C39.6763 10.7657 39.3412 11.706 39.3412 12.8406C39.3412 13.9752 39.6763 14.9156 40.3466 15.6566C41.0168 16.3721 41.8699 16.735 42.9007 16.735C43.9316 16.735 44.7795 16.3772 45.4548 15.6566ZM46.4858 5.92578H49.8116V19.7554H46.4858V18.1251C45.4802 19.4794 44.0889 20.1489 42.2812 20.1489C40.4735 20.1489 39.0822 19.459 37.8482 18.0484C36.6347 16.6379 36.0203 14.8951 36.0203 12.8508C36.0203 10.8065 36.6397 9.08929 37.8482 7.67876C39.0872 6.26822 40.5598 5.55271 42.2812 5.55271C44.0027 5.55271 45.4802 6.21709 46.4858 7.56635V5.93602V5.92578ZM61.0032 12.58C61.9834 13.3312 62.4709 14.3789 62.4456 15.7026C62.4456 17.1132 61.958 18.2222 60.9524 18.9888C59.9473 19.7401 58.7332 20.1234 57.2608 20.1234C54.6052 20.1234 52.8025 19.0144 51.8477 16.8372L54.7325 15.0944C55.1177 16.2801 55.966 16.8934 57.2608 16.8934C58.4491 16.8934 59.0381 16.5101 59.0381 15.7077C59.0381 15.1251 58.266 14.5987 56.6921 14.1898C56.0979 14.0263 55.6057 13.8576 55.2247 13.7196C54.6809 13.4999 54.2191 13.2495 53.8331 12.9428C52.8786 12.1916 52.3915 11.2 52.3915 9.92746C52.3915 8.57317 52.8533 7.49478 53.7823 6.71794C54.7376 5.91558 55.8996 5.53222 57.2913 5.53222C59.51 5.53222 61.13 6.49816 62.1914 8.46071L59.3578 10.1166C58.9468 9.17618 58.2457 8.70602 57.2913 8.70602C56.2857 8.70602 55.7981 9.08929 55.7981 9.84057C55.7981 10.4232 56.5703 10.9496 58.1442 11.3585C59.3578 11.6345 60.3122 12.0484 61.0032 12.58ZM71.5753 9.34996H68.6604V15.1047C68.6604 15.7946 68.9197 16.2137 69.4119 16.4028C69.7726 16.5408 70.4936 16.5663 71.5803 16.5152V19.7503C69.3408 20.0263 67.7162 19.8014 66.7618 19.0604C65.8069 18.3449 65.3447 17.011 65.3447 15.1098V9.34996H63.1052V5.92066H65.3447V3.13021L68.6706 2.05184V5.92578H71.5854V9.35508H71.5803L71.5753 9.34996ZM82.1778 15.5749C82.848 14.8593 83.1829 13.9445 83.1829 12.8355C83.1829 11.7264 82.848 10.8219 82.1778 10.0961C81.502 9.38064 80.6796 9.01777 79.6744 9.01777C78.6688 9.01777 77.8464 9.37552 77.1706 10.0961C76.5262 10.8474 76.1908 11.752 76.1908 12.8355C76.1908 13.9189 76.5262 14.8236 77.1706 15.5749C77.8413 16.2903 78.6688 16.6532 79.6744 16.6532C80.6796 16.6532 81.502 16.2955 82.1778 15.5749ZM74.8305 18.0331C73.5149 16.6226 72.8701 14.9105 72.8701 12.8355C72.8701 10.7605 73.5149 9.07402 74.8305 7.66343C76.1452 6.25285 77.7702 5.53734 79.6744 5.53734C81.5782 5.53734 83.2087 6.25285 84.5188 7.66343C85.8288 9.07402 86.5041 10.8167 86.5041 12.8355C86.5041 14.8542 85.8288 16.6226 84.5188 18.0331C83.2032 19.4437 81.604 20.1336 79.6744 20.1336C77.7449 20.1336 76.1401 19.4437 74.8305 18.0331ZM97.6242 15.6515C98.2945 14.9002 98.6298 13.9701 98.6298 12.8355C98.6298 11.7009 98.2945 10.7605 97.6242 10.045C96.9544 9.29371 96.1015 8.936 95.0701 8.936C94.0396 8.936 93.1863 9.29371 92.4911 10.045C91.8204 10.7605 91.4855 11.7009 91.4855 12.8355C91.4855 13.9701 91.8204 14.9105 92.4911 15.6515C93.1913 16.367 94.065 16.7299 95.0701 16.7299C96.0761 16.7299 96.9493 16.3721 97.6242 15.6515ZM98.6298 0.385742H101.956V19.7503H98.6298V18.12C97.65 19.4743 96.2584 20.1438 94.451 20.1438C92.6433 20.1438 91.2318 19.4539 89.9873 18.0433C88.7737 16.6328 88.1596 14.89 88.1596 12.8457C88.1596 10.8014 88.7787 9.08421 89.9873 7.67368C91.2212 6.26305 92.719 5.54759 94.451 5.54759C96.1823 5.54759 97.65 6.21197 98.6298 7.56122V0.390853V0.385742ZM113.64 15.5595C114.31 14.844 114.645 13.9292 114.645 12.8201C114.645 11.7112 114.31 10.8065 113.64 10.0808C112.97 9.36532 112.147 9.00245 111.137 9.00245C110.126 9.00245 109.309 9.3602 108.633 10.0808C107.988 10.8321 107.653 11.7367 107.653 12.8201C107.653 13.9037 107.988 14.8082 108.633 15.5595C109.304 16.275 110.131 16.6379 111.137 16.6379C112.142 16.6379 112.965 16.2801 113.64 15.5595ZM106.292 18.0178C104.983 16.6072 104.332 14.8951 104.332 12.8201C104.332 10.7452 104.977 9.05865 106.292 7.64811C107.607 6.23753 109.232 5.52202 111.137 5.52202C113.041 5.52202 114.671 6.23753 115.981 7.64811C117.296 9.05865 117.966 10.8014 117.966 12.8201C117.966 14.8389 117.296 16.6072 115.981 18.0178C114.666 19.4283 113.066 20.1183 111.137 20.1183C109.207 20.1183 107.602 19.4283 106.292 18.0178ZM132.357 11.2409V19.7349H129.031V11.6856C129.031 10.7707 128.802 10.0808 128.33 9.55954C127.893 9.08929 127.274 8.84399 126.476 8.84399C124.598 8.84399 123.643 9.97858 123.643 12.2733V19.7401H120.317V5.92066H123.643V7.47434C124.44 6.17617 125.71 5.53734 127.482 5.53734C128.899 5.53734 130.061 6.03311 130.966 7.05525C131.895 8.0774 132.357 9.46241 132.357 11.2563" fill="white"/>
<defs>
<linearGradient id="paint0_linear_0_1" x1="15.4858" y1="0.390625" x2="15.4858" y2="33.6104" gradientUnits="userSpaceOnUse">
<stop stop-color="#6364FF"/>
<stop offset="1" stop-color="#563ACC"/>
</linearGradient>
</defs>
</svg>
