<svg width="27" height="21" viewBox="0 0 27 21" fill="none" xmlns="http://www.w3.org/2000/svg">
<path d="M4.43701 12.6094C4.39795 12.6875 4.35889 12.7656 4.28076 12.8047C4.20264 13 4.08545 13.1562 4.00732 13.3516C4.67139 13.1953 5.29639 12.9219 5.92139 12.6484C6.1167 12.5703 6.27295 12.4922 6.4292 12.4141C6.81982 12.2188 7.21045 12.1797 7.64014 12.2578C8.10889 12.3359 8.57764 12.375 9.12451 12.375C12.8745 12.375 15.3745 9.875 15.3745 7.375C15.3745 4.91406 12.8745 2.375 9.12451 2.375C5.33545 2.375 2.87451 4.91406 2.87451 7.375C2.87451 8.46875 3.3042 9.52344 4.12451 10.4219C4.71045 11.0078 4.82764 11.8672 4.43701 12.6094ZM0.999512 7.375C0.999512 3.58594 4.63232 0.5 9.12451 0.5C13.5776 0.5 17.2495 3.58594 17.2495 7.375C17.2495 11.2031 13.5776 14.25 9.12451 14.25C8.46045 14.25 7.87451 14.2109 7.24951 14.0938C7.09326 14.1719 6.89795 14.2891 6.70264 14.3672C5.29639 14.9922 3.6167 15.5 1.93701 15.5C1.54639 15.5 1.19482 15.3047 1.03857 14.9531C0.921387 14.6016 0.960449 14.2109 1.23389 13.9375C1.78076 13.3125 2.24951 12.6094 2.6792 11.9062C2.71826 11.8281 2.75732 11.75 2.75732 11.7109C1.66357 10.5391 0.999512 9.01562 0.999512 7.375ZM17.8745 19.25C14.6714 19.25 11.8979 17.6875 10.5698 15.4219C11.2339 15.3047 11.8979 15.1484 12.5229 14.9531C13.5386 16.3594 15.4526 17.375 17.8354 17.375C18.3823 17.375 18.8511 17.3359 19.3198 17.2578C19.7495 17.1797 20.1401 17.2188 20.5308 17.4141C20.687 17.4922 20.8433 17.5703 21.0386 17.6484C21.6636 17.9219 22.2886 18.1562 22.9526 18.3516C22.8745 18.1562 22.7573 18 22.6792 17.8047C22.6401 17.7266 22.562 17.6484 22.5229 17.5703C22.1714 16.8672 22.2886 16.0078 22.8354 15.4219C23.6558 14.5234 24.1245 13.4688 24.1245 12.375C24.1245 10.0703 21.8979 7.6875 18.4995 7.41406V7.375C18.4995 6.75 18.3823 6.125 18.2261 5.53906C22.562 5.69531 25.9995 8.70312 25.9995 12.375C25.9995 14.0156 25.2964 15.5391 24.2026 16.7109C24.2026 16.7891 24.2417 16.8281 24.2808 16.9062C24.7104 17.6094 25.1792 18.3125 25.7261 18.9375C25.9995 19.2109 26.0386 19.6016 25.9214 19.9531C25.7651 20.3047 25.4136 20.5 25.062 20.5C23.3823 20.5 21.6636 19.9922 20.2573 19.3672C20.062 19.2891 19.8667 19.1719 19.7104 19.0938C19.0854 19.2109 18.4995 19.25 17.8745 19.25Z" fill="black"/>
</svg>
