<svg width="20" height="19" viewBox="0 0 20 19" fill="none" xmlns="http://www.w3.org/2000/svg">
<path d="M6.5625 2.625C6.01562 2.625 5.625 3.05469 5.625 3.5625V15.4375C5.625 15.7891 5.54688 16.1016 5.42969 16.375H17.1875C17.6953 16.375 18.125 15.9844 18.125 15.4375V3.5625C18.125 3.05469 17.6953 2.625 17.1875 2.625H6.5625ZM2.8125 16.375C3.32031 16.375 3.75 15.9844 3.75 15.4375V3.5625C3.75 2.03906 5 0.75 6.5625 0.75H17.1875C18.7109 0.75 20 2.03906 20 3.5625V15.4375C20 17 18.7109 18.25 17.1875 18.25H2.8125C1.25 18.25 0 17 0 15.4375V3.875C0 3.36719 0.390625 2.9375 0.9375 2.9375C1.44531 2.9375 1.875 3.36719 1.875 3.875V15.4375C1.875 15.9844 2.26562 16.375 2.8125 16.375ZM6.875 4.8125C6.875 4.30469 7.26562 3.875 7.8125 3.875H15.9375C16.4453 3.875 16.875 4.30469 16.875 4.8125V7.9375C16.875 8.48438 16.4453 8.875 15.9375 8.875H7.8125C7.26562 8.875 6.875 8.48438 6.875 7.9375V4.8125ZM7.8125 10.125H10.3125C10.8203 10.125 11.25 10.5547 11.25 11.0625C11.25 11.6094 10.8203 12 10.3125 12H7.8125C7.26562 12 6.875 11.6094 6.875 11.0625C6.875 10.5547 7.26562 10.125 7.8125 10.125ZM13.4375 10.125H15.9375C16.4453 10.125 16.875 10.5547 16.875 11.0625C16.875 11.6094 16.4453 12 15.9375 12H13.4375C12.8906 12 12.5 11.6094 12.5 11.0625C12.5 10.5547 12.8906 10.125 13.4375 10.125ZM7.8125 13.25H10.3125C10.8203 13.25 11.25 13.6797 11.25 14.1875C11.25 14.7344 10.8203 15.125 10.3125 15.125H7.8125C7.26562 15.125 6.875 14.7344 6.875 14.1875C6.875 13.6797 7.26562 13.25 7.8125 13.25ZM13.4375 13.25H15.9375C16.4453 13.25 16.875 13.6797 16.875 14.1875C16.875 14.7344 16.4453 15.125 15.9375 15.125H13.4375C12.8906 15.125 12.5 14.7344 12.5 14.1875C12.5 13.6797 12.8906 13.25 13.4375 13.25Z" fill="#2E363B"/>
</svg>
