<svg width="20" height="18" viewBox="0 0 20 18" fill="none" xmlns="http://www.w3.org/2000/svg">
<path d="M6.5625 1.875C6.01562 1.875 5.625 2.30469 5.625 2.8125V14.6875C5.625 15.0391 5.54688 15.3516 5.42969 15.625H17.1875C17.6953 15.625 18.125 15.2344 18.125 14.6875V2.8125C18.125 2.30469 17.6953 1.875 17.1875 1.875H6.5625ZM2.8125 15.625C3.32031 15.625 3.75 15.2344 3.75 14.6875V2.8125C3.75 1.28906 5 0 6.5625 0H17.1875C18.7109 0 20 1.28906 20 2.8125V14.6875C20 16.25 18.7109 17.5 17.1875 17.5H2.8125C1.25 17.5 0 16.25 0 14.6875V3.125C0 2.61719 0.390625 2.1875 0.9375 2.1875C1.44531 2.1875 1.875 2.61719 1.875 3.125V14.6875C1.875 15.2344 2.26562 15.625 2.8125 15.625ZM6.875 4.0625C6.875 3.55469 7.26562 3.125 7.8125 3.125H15.9375C16.4453 3.125 16.875 3.55469 16.875 4.0625V7.1875C16.875 7.73438 16.4453 8.125 15.9375 8.125H7.8125C7.26562 8.125 6.875 7.73438 6.875 7.1875V4.0625ZM7.8125 9.375H10.3125C10.8203 9.375 11.25 9.80469 11.25 10.3125C11.25 10.8594 10.8203 11.25 10.3125 11.25H7.8125C7.26562 11.25 6.875 10.8594 6.875 10.3125C6.875 9.80469 7.26562 9.375 7.8125 9.375ZM13.4375 9.375H15.9375C16.4453 9.375 16.875 9.80469 16.875 10.3125C16.875 10.8594 16.4453 11.25 15.9375 11.25H13.4375C12.8906 11.25 12.5 10.8594 12.5 10.3125C12.5 9.80469 12.8906 9.375 13.4375 9.375ZM7.8125 12.5H10.3125C10.8203 12.5 11.25 12.9297 11.25 13.4375C11.25 13.9844 10.8203 14.375 10.3125 14.375H7.8125C7.26562 14.375 6.875 13.9844 6.875 13.4375C6.875 12.9297 7.26562 12.5 7.8125 12.5ZM13.4375 12.5H15.9375C16.4453 12.5 16.875 12.9297 16.875 13.4375C16.875 13.9844 16.4453 14.375 15.9375 14.375H13.4375C12.8906 14.375 12.5 13.9844 12.5 13.4375C12.5 12.9297 12.8906 12.5 13.4375 12.5Z" fill="black"/>
</svg>
