<svg width="13" height="11" viewBox="0 0 13 11" fill="none" xmlns="http://www.w3.org/2000/svg">
<path d="M1.01562 0.34375H2.23438C2.56445 0.34375 2.84375 0.623047 2.84375 0.953125V2.17188C2.84375 2.52734 2.56445 2.78125 2.23438 2.78125H1.01562C0.660156 2.78125 0.40625 2.52734 0.40625 2.17188V0.953125C0.40625 0.623047 0.660156 0.34375 1.01562 0.34375ZM4.67188 0.953125H12.3906C12.7207 0.953125 13 1.23242 13 1.5625C13 1.91797 12.7207 2.17188 12.3906 2.17188H4.67188C4.31641 2.17188 4.0625 1.91797 4.0625 1.5625C4.0625 1.23242 4.31641 0.953125 4.67188 0.953125ZM4.67188 5.01562H12.3906C12.7207 5.01562 13 5.29492 13 5.625C13 5.98047 12.7207 6.23438 12.3906 6.23438H4.67188C4.31641 6.23438 4.0625 5.98047 4.0625 5.625C4.0625 5.29492 4.31641 5.01562 4.67188 5.01562ZM4.67188 9.07812H12.3906C12.7207 9.07812 13 9.35742 13 9.6875C13 10.043 12.7207 10.2969 12.3906 10.2969H4.67188C4.31641 10.2969 4.0625 10.043 4.0625 9.6875C4.0625 9.35742 4.31641 9.07812 4.67188 9.07812ZM0.40625 5.01562C0.40625 4.68555 0.660156 4.40625 1.01562 4.40625H2.23438C2.56445 4.40625 2.84375 4.68555 2.84375 5.01562V6.23438C2.84375 6.58984 2.56445 6.84375 2.23438 6.84375H1.01562C0.660156 6.84375 0.40625 6.58984 0.40625 6.23438V5.01562ZM1.01562 8.46875H2.23438C2.56445 8.46875 2.84375 8.74805 2.84375 9.07812V10.2969C2.84375 10.6523 2.56445 10.9062 2.23438 10.9062H1.01562C0.660156 10.9062 0.40625 10.6523 0.40625 10.2969V9.07812C0.40625 8.74805 0.660156 8.46875 1.01562 8.46875Z" fill="#2E363B"/>
</svg>
