<svg width="27" height="27" viewBox="0 0 27 27" fill="none" xmlns="http://www.w3.org/2000/svg">
<path d="M18.8711 2.05273C19.9453 0.978516 21.6543 0.978516 22.7285 2.05273L24.9746 4.29883C26.0488 5.37305 26.0488 7.08203 24.9746 8.15625L21.5078 11.623L21.0195 12.1113L19.0176 19.4355C18.7734 20.2656 18.1387 20.998 17.3086 21.291L4.41797 25.7832C3.49023 26.125 2.46484 25.8809 1.83008 25.1973C1.14648 24.5625 0.902344 23.5371 1.24414 22.6094L5.73633 9.71875C6.0293 8.88867 6.76172 8.25391 7.5918 8.00977L14.916 6.00781L15.4043 5.51953L18.8711 2.05273ZM15.3555 8.30273L8.22656 10.2559C8.12891 10.3047 7.98242 10.4023 7.98242 10.5L3.92969 21.9746L8.91016 16.9941C8.76367 16.7012 8.71484 16.3594 8.71484 15.9688C8.71484 14.6992 9.74023 13.625 11.0586 13.625C12.3281 13.625 13.4023 14.6992 13.4023 15.9688C13.4023 17.2871 12.3281 18.3125 11.0586 18.3125C10.668 18.3125 10.3262 18.2637 10.0332 18.1172L5.05273 23.0977L16.5273 19.0449C16.625 18.9961 16.7227 18.8984 16.7715 18.8008L18.7246 11.6719L15.3555 8.30273Z" fill="black" fill-opacity="0.7"/>
</svg>
