
<svg width="22" height="26" viewBox="0 0 22 26" fill="none" xmlns="http://www.w3.org/2000/svg">
<path d="M19.5312 11.0625C19.5312 6.32617 15.6738 2.46875 10.9375 2.46875C6.15234 2.46875 2.34375 6.32617 2.34375 11.0625C2.34375 14.0898 3.85742 16.6777 6.15234 18.2402C6.20117 19.0703 6.34766 20.0469 6.49414 20.9258L6.54297 21.1211C2.68555 19.4121 0 15.5547 0 11.0625C0 5.05664 4.88281 0.125 10.9375 0.125C16.9434 0.125 21.875 5.05664 21.875 11.0625C21.875 15.5547 19.1406 19.4121 15.2832 21.1211L15.332 20.9258C15.4785 20.0469 15.625 19.0703 15.6738 18.2402C17.9688 16.6777 19.5312 14.0898 19.5312 11.0625ZM17.9688 11.0625C17.9688 13.1621 17.041 15.0176 15.625 16.2871C15.5273 15.9453 15.4297 15.6035 15.2344 15.3105C14.9902 14.8711 14.6484 14.5781 14.3066 14.334C15.1367 13.4551 15.625 12.332 15.625 11.0625C15.625 8.47461 13.5254 6.375 10.9375 6.375C8.34961 6.375 6.25 8.47461 6.25 11.0625C6.25 12.332 6.73828 13.4551 7.51953 14.334C7.17773 14.5781 6.83594 14.9199 6.5918 15.3105C6.39648 15.6035 6.29883 15.9453 6.20117 16.2871C4.78516 15.0176 3.90625 13.1621 3.90625 11.0625C3.90625 7.20508 7.03125 4.03125 10.9375 4.03125C14.7949 4.03125 17.9688 7.20508 17.9688 11.0625ZM10.9375 10.2812C10.498 10.2812 10.1562 10.6719 10.1562 11.0625C10.1562 11.502 10.498 11.8438 10.9375 11.8438C11.3281 11.8438 11.7188 11.502 11.7188 11.0625C11.7188 10.6719 11.3281 10.2812 10.9375 10.2812ZM10.9375 14.1875C9.81445 14.1875 8.78906 13.6016 8.20312 12.625C7.66602 11.6973 7.66602 10.4766 8.20312 9.5C8.78906 8.57227 9.81445 7.9375 10.9375 7.9375C12.0117 7.9375 13.0371 8.57227 13.623 9.5C14.1602 10.4766 14.1602 11.6973 13.623 12.625C13.0371 13.6016 12.0117 14.1875 10.9375 14.1875ZM8.69141 23.9531C8.30078 22.4883 7.66602 18.875 7.66602 17.2148C7.66602 15.4082 9.22852 14.9688 10.8887 14.9688C12.5977 14.9688 14.1602 15.4082 14.1602 17.2148C14.1602 18.875 13.5254 22.4883 13.1348 23.9531C12.8418 24.9297 11.8652 25.125 10.9375 25.125C9.96094 25.125 8.98438 24.9297 8.69141 23.9531ZM10.9863 22.7812C11.1328 22.1465 11.3281 21.2188 11.4746 20.291C11.6699 19.1191 11.8164 18.0938 11.8164 17.4102C11.7676 17.4102 11.7676 17.4102 11.7188 17.4102C11.5234 17.3613 11.2305 17.3125 10.9375 17.3125C10.5957 17.3125 10.3516 17.3613 10.1074 17.4102C10.1074 17.4102 10.0586 17.4102 10.0098 17.4102C10.0586 18.0938 10.1562 19.1191 10.3516 20.291C10.498 21.2676 10.6934 22.1465 10.8398 22.7812C10.8398 22.7812 10.8887 22.7812 10.9375 22.7812H10.9863Z" fill="black" fill-opacity="0.7"/>
</svg>
