<svg width="16" height="16" viewBox="0 0 16 16" fill="none" xmlns="http://www.w3.org/2000/svg">
<path d="M1.61563 8.72188L2.60625 8.91875C2.85313 8.96875 3.10625 8.89062 3.28437 8.7125L3.76562 8.23125C4.12813 7.86875 4.7375 7.96875 4.96562 8.425L5.25625 9.00313C5.40625 9.30313 5.7125 9.49375 6.05 9.49375C6.525 9.49375 6.86562 9.0375 6.72813 8.58125L6.54063 7.95938C6.39687 7.47813 6.75625 6.99375 7.25938 6.99375H7.33125C7.75 6.99375 8.14062 6.78438 8.37187 6.4375L8.70625 5.93437C8.88125 5.66875 8.87187 5.32188 8.68125 5.06875L8.17813 4.39687C7.85625 3.96875 8.075 3.35 8.59688 3.21875L9.12813 3.08437C9.3625 3.025 9.55313 2.85938 9.64375 2.63438L10.1562 1.35625C9.48125 1.12813 8.75625 1 8 1C4.40938 1 1.5 3.90938 1.5 7.5C1.5 7.91875 1.54062 8.32812 1.61563 8.72188ZM14.3562 8.86563C14.2625 8.85625 14.1687 8.8625 14.075 8.89062L13.5813 9.02812C13.3719 9.0875 13.15 9 13.0344 8.81875L12.9719 8.72188C12.7844 8.42813 12.4594 8.25 12.1094 8.25C11.7594 8.25 11.4344 8.42813 11.2469 8.72188L11.0562 9.01875C11.0125 9.0875 10.95 9.14687 10.8781 9.18437L9.75 9.81563C9.18437 10.1313 8.95312 10.8281 9.21875 11.4187L9.39062 11.8062C9.65938 12.4062 10.35 12.6969 10.9688 12.4656L11.05 12.4344C11.3625 12.3187 11.7156 12.3656 11.9844 12.5625L12.0312 12.5969C13.1938 11.675 14.0344 10.3656 14.3562 8.8625V8.86563ZM0 7.5C0 5.37827 0.842855 3.34344 2.34315 1.84315C3.84344 0.342855 5.87827 -0.5 8 -0.5C10.1217 -0.5 12.1566 0.342855 13.6569 1.84315C15.1571 3.34344 16 5.37827 16 7.5C16 9.62173 15.1571 11.6566 13.6569 13.1569C12.1566 14.6571 10.1217 15.5 8 15.5C5.87827 15.5 3.84344 14.6571 2.34315 13.1569C0.842855 11.6566 0 9.62173 0 7.5ZM4.51562 10.3781C4.45 10.6469 4.6125 10.9187 4.87813 10.9844L5.87813 11.2344C6.14688 11.3 6.41875 11.1375 6.48438 10.8719C6.55 10.6062 6.3875 10.3313 6.12187 10.2656L5.12187 10.0156C4.85312 9.95 4.58125 10.1125 4.51562 10.3781ZM7.39062 9.75313C7.325 10.0219 7.4875 10.2937 7.75313 10.3594C8.01875 10.425 8.29375 10.2625 8.35938 9.99687L8.60938 8.99687C8.675 8.72812 8.5125 8.45625 8.24687 8.39062C7.98125 8.325 7.70625 8.4875 7.64062 8.75313L7.39062 9.75313ZM10.725 3.05312C10.4781 2.92812 10.1781 3.03125 10.0531 3.27813L9.55313 4.27812C9.42813 4.525 9.53125 4.825 9.77812 4.95C10.025 5.075 10.325 4.97187 10.45 4.725L10.95 3.725C11.075 3.47812 10.9719 3.17812 10.725 3.05312Z" fill="#626982"/>
</svg>
