<svg width="17" height="17" viewBox="0 0 17 17" fill="none" xmlns="http://www.w3.org/2000/svg">
<path d="M8.5 0C13.1816 0 17 3.81836 17 8.5C17 13.2148 13.1816 17 8.5 17C3.78516 17 0 13.2148 0 8.5C0 3.81836 3.78516 0 8.5 0ZM8.5 15.9375C12.584 15.9375 15.9375 12.6172 15.9375 8.5C15.9375 4.41602 12.584 1.0625 8.5 1.0625C4.38281 1.0625 1.0625 4.41602 1.0625 8.5C1.0625 12.6172 4.38281 15.9375 8.5 15.9375ZM7.96875 11.4219C8.40039 11.4219 8.76562 11.7871 8.76562 12.2188C8.76562 12.6836 8.40039 13.0156 7.96875 13.0156C7.50391 13.0156 7.17188 12.6836 7.17188 12.2188C7.17188 11.7871 7.50391 11.4219 7.96875 11.4219ZM9.46289 4.25C10.6914 4.25 11.6875 5.24609 11.6875 6.47461C11.6875 7.27148 11.2227 8.00195 10.5254 8.40039L8.5332 9.39648C8.5 9.42969 8.5 9.46289 8.5 9.49609V10.0938C8.5 10.3926 8.23438 10.625 7.96875 10.625C7.66992 10.625 7.4375 10.3926 7.4375 10.0938V9.49609C7.4375 9.06445 7.66992 8.66602 8.03516 8.4668L10.0273 7.4707C10.3926 7.27148 10.625 6.87305 10.625 6.47461C10.625 5.84375 10.0938 5.3125 9.46289 5.3125H7.50391C6.87305 5.3125 6.375 5.84375 6.375 6.47461V6.77344C6.375 7.07227 6.10938 7.30469 5.84375 7.30469C5.54492 7.30469 5.3125 7.07227 5.3125 6.77344V6.47461C5.3125 5.24609 6.27539 4.25 7.50391 4.25H9.46289Z" fill="white"/>
</svg>
