<svg width="23" height="23" viewBox="0 0 23 23" fill="none" xmlns="http://www.w3.org/2000/svg">
<path d="M1 1.85938C1 1.22461 1.48828 0.6875 2.17188 0.6875C13.5977 0.6875 22.875 9.96484 22.875 21.3906C22.875 22.0742 22.3379 22.5625 21.7031 22.5625C21.0195 22.5625 20.5312 22.0742 20.5312 21.3906C20.5312 11.2832 12.2793 3.03125 2.17188 3.03125C1.48828 3.03125 1 2.54297 1 1.85938ZM4.125 20.2188C4.51562 20.2188 4.90625 19.877 4.90625 19.4375C4.90625 19.0469 4.51562 18.6562 4.125 18.6562C3.68555 18.6562 3.34375 19.0469 3.34375 19.4375C3.34375 19.877 3.68555 20.2188 4.125 20.2188ZM4.125 16.3125C5.19922 16.3125 6.22461 16.9473 6.81055 17.875C7.34766 18.8516 7.34766 20.0723 6.81055 21C6.22461 21.9766 5.19922 22.5625 4.125 22.5625C3.00195 22.5625 1.97656 21.9766 1.39062 21C0.853516 20.0723 0.853516 18.8516 1.39062 17.875C1.97656 16.9473 3.00195 16.3125 4.125 16.3125ZM2.17188 7.71875C9.69141 7.71875 15.8438 13.8711 15.8438 21.3906C15.8438 22.0742 15.3066 22.5625 14.6719 22.5625C13.9883 22.5625 13.5 22.0742 13.5 21.3906C13.5 15.1406 8.42188 10.0625 2.17188 10.0625C1.48828 10.0625 1 9.57422 1 8.89062C1 8.25586 1.48828 7.71875 2.17188 7.71875Z" fill="black" fill-opacity="0.7"/>
</svg>
