<svg width="18" height="18" viewBox="0 0 18 18" fill="none" xmlns="http://www.w3.org/2000/svg">
<path d="M7.52051 12.584C7.52051 12.584 7.52051 12.584 7.4873 12.584C7.58691 12.7832 7.55371 13.0156 7.3877 13.1816L4.36621 16.2031C3.96777 16.6016 3.43652 16.9004 2.87207 17C2.0752 17.0996 1.31152 16.834 0.74707 16.2695C-0.249023 15.2734 -0.249023 13.6797 0.74707 12.7168L5.22949 8.23438C5.46191 8.03516 5.79395 8.03516 5.99316 8.23438C6.19238 8.43359 6.19238 8.76562 5.99316 8.96484L1.51074 13.4473C0.879883 14.0781 0.979492 15.1738 1.74316 15.7051C2.34082 16.1035 3.1377 15.9707 3.63574 15.4727L6.65723 12.4512C6.92285 12.1855 7.32129 12.252 7.52051 12.584ZM8.64941 2.95508C8.4834 3.25391 8.08496 3.28711 7.85254 3.05469C7.68652 2.88867 7.65332 2.58984 7.78613 2.39062C7.95215 2.05859 8.18457 1.75977 8.4834 1.49414C9.74512 0.232422 11.5049 -0.265625 13.2314 0.166016C13.5303 0.232422 13.7959 0.498047 13.8623 0.796875C13.9619 1.12891 13.8623 1.46094 13.6299 1.69336L11.5381 3.81836L11.7705 5.2793L13.2314 5.51172L15.3564 3.38672C15.5889 3.1543 15.9209 3.08789 16.2529 3.1543C16.5518 3.25391 16.8174 3.51953 16.8838 3.81836C17.3154 5.54492 16.8174 7.30469 15.5557 8.56641C15.3896 8.76562 15.1904 8.93164 14.9912 9.06445C14.792 9.23047 14.4932 9.19727 14.2939 8.99805C14.0615 8.79883 14.0947 8.40039 14.3271 8.23438C14.4932 8.10156 14.6592 7.96875 14.8252 7.83594C15.7217 6.90625 16.1201 5.61133 15.9209 4.34961L13.5967 6.64062L10.8408 6.20898L10.4092 3.45312L12.7002 1.12891C12.4678 1.0957 12.2354 1.0625 12.0029 1.0625C10.9736 1.0625 9.97754 1.49414 9.21387 2.22461C9.01465 2.45703 8.81543 2.68945 8.64941 2.95508ZM2.1416 14.3438C2.1416 14.0781 2.40723 13.8457 2.67285 13.8457C2.90527 13.8457 3.1709 14.1113 3.1709 14.3438C3.1709 14.6094 2.93848 14.8418 2.67285 14.8418C2.37402 14.8418 2.1416 14.6426 2.1416 14.3438ZM16.7178 12.9492C17.1494 13.3477 17.1494 14.0449 16.6846 14.4434L14.46 16.7012C14.2607 16.9004 13.9951 17 13.7295 17C13.4307 17 13.165 16.9004 12.9658 16.6348L8.84863 12.5176C7.91895 11.5879 7.81934 10.1934 8.4834 9.16406L5.66113 6.3418H3.2373L0.0498047 2.125L2.1748 0L6.3916 3.1875V5.64453L9.24707 8.4668C9.67871 8.16797 10.21 8.03516 10.708 8.03516C11.4053 8.03516 12.0693 8.30078 12.6006 8.79883L16.7178 12.9492ZM5.3291 5.3125H5.2959V3.71875L2.24121 1.42773L1.44434 2.22461L3.76855 5.3125H5.3291ZM13.7295 15.9375L15.9541 13.6797L11.8369 9.5625C11.5381 9.26367 11.1396 9.09766 10.708 9.09766C10.2764 9.09766 9.87793 9.26367 9.5791 9.5625C9.28027 9.86133 9.11426 10.2598 9.11426 10.6914C9.11426 11.123 9.28027 11.5215 9.5791 11.8203L13.7295 15.9375Z" fill="white"/>
</svg>
