<svg width="18" height="19" viewBox="0 0 18 19" fill="none" xmlns="http://www.w3.org/2000/svg">
<path d="M12.9375 7.3125C12.9375 5.30859 11.8477 3.48047 10.125 2.46094C8.36719 1.44141 6.22266 1.44141 4.5 2.46094C2.74219 3.48047 1.6875 5.30859 1.6875 7.3125C1.6875 9.35156 2.74219 11.1797 4.5 12.1992C6.22266 13.2188 8.36719 13.2188 10.125 12.1992C11.8477 11.1797 12.9375 9.35156 12.9375 7.3125ZM11.8477 13.0781C10.582 14.0625 9 14.625 7.3125 14.625C3.26953 14.625 0 11.3555 0 7.3125C0 3.30469 3.26953 0 7.3125 0C11.3203 0 14.625 3.30469 14.625 7.3125C14.625 9.03516 14.0273 10.6172 13.043 11.8828L17.7539 16.5586C18.0703 16.9102 18.0703 17.4375 17.7539 17.7539C17.4023 18.1055 16.875 18.1055 16.5586 17.7539L11.8477 13.0781Z" fill="#232933"/>
</svg>
