<svg width="21" height="19" viewBox="0 0 21 19" fill="none" xmlns="http://www.w3.org/2000/svg">
<path d="M0.166992 15.75C0.166992 15.2422 0.557617 14.8125 1.10449 14.8125H3.40918C3.7998 13.5625 5.01074 12.625 6.41699 12.625C7.78418 12.625 8.99512 13.5625 9.38574 14.8125H19.2295C19.7373 14.8125 20.167 15.2422 20.167 15.75C20.167 16.2969 19.7373 16.6875 19.2295 16.6875H9.38574C8.99512 17.9766 7.78418 18.875 6.41699 18.875C5.01074 18.875 3.7998 17.9766 3.40918 16.6875H1.10449C0.557617 16.6875 0.166992 16.2969 0.166992 15.75ZM7.66699 15.75C7.66699 15.0859 7.08105 14.5 6.41699 14.5C5.71387 14.5 5.16699 15.0859 5.16699 15.75C5.16699 16.4531 5.71387 17 6.41699 17C7.08105 17 7.66699 16.4531 7.66699 15.75ZM15.167 9.5C15.167 8.83594 14.5811 8.25 13.917 8.25C13.2139 8.25 12.667 8.83594 12.667 9.5C12.667 10.2031 13.2139 10.75 13.917 10.75C14.5811 10.75 15.167 10.2031 15.167 9.5ZM13.917 6.375C15.2842 6.375 16.4951 7.3125 16.8857 8.5625H19.2295C19.7373 8.5625 20.167 8.99219 20.167 9.5C20.167 10.0469 19.7373 10.4375 19.2295 10.4375H16.8857C16.4951 11.7266 15.2842 12.625 13.917 12.625C12.5107 12.625 11.2998 11.7266 10.9092 10.4375H1.10449C0.557617 10.4375 0.166992 10.0469 0.166992 9.5C0.166992 8.99219 0.557617 8.5625 1.10449 8.5625H10.9092C11.2998 7.3125 12.5107 6.375 13.917 6.375ZM7.66699 2C6.96387 2 6.41699 2.58594 6.41699 3.25C6.41699 3.95312 6.96387 4.5 7.66699 4.5C8.33105 4.5 8.91699 3.95312 8.91699 3.25C8.91699 2.58594 8.33105 2 7.66699 2ZM10.6357 2.3125H19.2295C19.7373 2.3125 20.167 2.74219 20.167 3.25C20.167 3.79688 19.7373 4.1875 19.2295 4.1875H10.6357C10.2451 5.47656 9.03418 6.375 7.66699 6.375C6.26074 6.375 5.0498 5.47656 4.65918 4.1875H1.10449C0.557617 4.1875 0.166992 3.79688 0.166992 3.25C0.166992 2.74219 0.557617 2.3125 1.10449 2.3125H4.65918C5.0498 1.0625 6.26074 0.125 7.66699 0.125C9.03418 0.125 10.2451 1.0625 10.6357 2.3125Z" fill="black"/>
</svg>
