<svg width="17" height="16" viewBox="0 0 17 16" fill="none" xmlns="http://www.w3.org/2000/svg">
<path d="M0 13.2812C0 13.0156 0.232422 12.75 0.53125 12.75H2.68945C2.95508 11.5547 4.01758 10.625 5.3125 10.625C6.57422 10.625 7.63672 11.5547 7.90234 12.75H16.4688C16.7344 12.75 17 13.0156 17 13.2812C17 13.5801 16.7344 13.8125 16.4688 13.8125H7.90234C7.63672 15.041 6.57422 15.9375 5.3125 15.9375C4.01758 15.9375 2.95508 15.041 2.68945 13.8125H0.53125C0.232422 13.8125 0 13.5801 0 13.2812ZM6.90625 13.2812C6.90625 12.418 6.17578 11.6875 5.3125 11.6875C4.41602 11.6875 3.71875 12.418 3.71875 13.2812C3.71875 14.1777 4.41602 14.875 5.3125 14.875C6.17578 14.875 6.90625 14.1777 6.90625 13.2812ZM11.6875 5.3125C12.9492 5.3125 14.0117 6.24219 14.2773 7.4375H16.4688C16.7344 7.4375 17 7.70312 17 7.96875C17 8.26758 16.7344 8.5 16.4688 8.5H14.2773C14.0117 9.72852 12.9492 10.625 11.6875 10.625C10.3926 10.625 9.33008 9.72852 9.06445 8.5H0.53125C0.232422 8.5 0 8.26758 0 7.96875C0 7.70312 0.232422 7.4375 0.53125 7.4375H9.06445C9.33008 6.24219 10.3926 5.3125 11.6875 5.3125ZM13.2812 7.96875C13.2812 7.10547 12.5508 6.375 11.6875 6.375C10.791 6.375 10.0938 7.10547 10.0938 7.96875C10.0938 8.86523 10.791 9.5625 11.6875 9.5625C12.5508 9.5625 13.2812 8.86523 13.2812 7.96875ZM16.4688 2.125C16.7344 2.125 17 2.39062 17 2.65625C17 2.95508 16.7344 3.1875 16.4688 3.1875H8.96484C8.69922 4.41602 7.63672 5.3125 6.375 5.3125C5.08008 5.3125 4.01758 4.41602 3.75195 3.1875H0.53125C0.232422 3.1875 0 2.95508 0 2.65625C0 2.39062 0.232422 2.125 0.53125 2.125H3.75195C4.01758 0.929688 5.08008 0 6.375 0C7.63672 0 8.69922 0.929688 8.96484 2.125H16.4688ZM4.78125 2.65625C4.78125 3.55273 5.47852 4.25 6.375 4.25C7.23828 4.25 7.96875 3.55273 7.96875 2.65625C7.96875 1.79297 7.23828 1.0625 6.375 1.0625C5.47852 1.0625 4.78125 1.79297 4.78125 2.65625Z" fill="white"/>
</svg>
