<svg width="17" height="17" viewBox="0 0 17 17" fill="none" xmlns="http://www.w3.org/2000/svg">
<path d="M8.5 12.2188C9.92773 12.2188 10.9238 11.5215 11.5215 10.8242C11.7207 10.5918 12.0527 10.5918 12.2852 10.7578C12.5176 10.957 12.5176 11.2891 12.3516 11.5215C11.5879 12.3848 10.3262 13.2812 8.5 13.2812C6.64062 13.2812 5.37891 12.3848 4.61523 11.5215C4.44922 11.2891 4.44922 10.957 4.68164 10.7578C4.91406 10.5918 5.24609 10.5918 5.44531 10.8242C6.04297 11.5215 7.03906 12.2188 8.5 12.2188ZM6.64062 6.90625C6.64062 7.37109 6.27539 7.70312 5.84375 7.70312C5.41211 7.70312 5.04688 7.37109 5.04688 6.90625C5.04688 6.47461 5.41211 6.10938 5.84375 6.10938C6.27539 6.10938 6.64062 6.47461 6.64062 6.90625ZM10.3594 6.90625C10.3594 6.47461 10.7246 6.10938 11.1562 6.10938C11.5879 6.10938 11.9531 6.47461 11.9531 6.90625C11.9531 7.37109 11.5879 7.70312 11.1562 7.70312C10.7246 7.70312 10.3594 7.37109 10.3594 6.90625ZM17 8.5C17 13.2148 13.1816 17 8.5 17C3.78516 17 0 13.2148 0 8.5C0 3.81836 3.78516 0 8.5 0C13.1816 0 17 3.81836 17 8.5ZM8.5 1.0625C4.38281 1.0625 1.0625 4.41602 1.0625 8.5C1.0625 12.6172 4.38281 15.9375 8.5 15.9375C12.584 15.9375 15.9375 12.6172 15.9375 8.5C15.9375 4.41602 12.584 1.0625 8.5 1.0625Z" fill="white"/>
</svg>
