<svg width="22" height="17" viewBox="0 0 22 17" fill="none" xmlns="http://www.w3.org/2000/svg">
<path d="M13.8322 5.84375C13.8322 9.09766 10.7111 11.6875 6.92599 11.6875C6.22873 11.6875 5.59787 11.6211 4.96701 11.4551C4.03732 12.0859 2.57638 12.75 0.783414 12.75C0.484585 12.75 0.185757 12.584 0.0529448 12.2852C-0.0466646 11.9863 -0.0134614 11.6543 0.21896 11.4219C0.21896 11.4219 1.01584 10.5586 1.51388 9.49609C0.584195 8.5 0.0197417 7.23828 0.0197417 5.84375C0.0197417 2.62305 3.10763 0 6.92599 0C10.7111 0 13.8322 2.62305 13.8322 5.84375ZM6.92599 10.625C10.1467 10.625 12.7697 8.5 12.7697 5.84375C12.7697 3.2207 10.1467 1.0625 6.92599 1.0625C3.67209 1.0625 1.08224 3.2207 1.08224 5.84375C1.08224 6.90625 1.48068 7.93555 2.27755 8.76562L2.7756 9.29688L2.47677 9.96094C2.14474 10.6582 1.7131 11.2559 1.41427 11.6875C2.67599 11.5547 3.70529 11.0234 4.40255 10.5918L4.76779 10.3262L5.23263 10.4258C5.76388 10.5586 6.36154 10.625 6.92599 10.625ZM20.1408 14.4766C20.5725 15.1738 21.0373 15.6719 21.0373 15.7051C21.2365 15.9043 21.3029 16.2363 21.2033 16.5352C21.0705 16.834 20.7717 17 20.4729 17C19.3772 17 18.4475 16.7676 17.6506 16.4355C16.7873 16.8008 15.8576 17 14.8947 17C11.8733 17 9.38302 15.1406 8.68576 12.584C9.05099 12.5176 9.41623 12.418 9.74826 12.3184C10.3127 14.4102 12.3713 15.9375 14.8947 15.9375C15.6916 15.9375 16.4553 15.7715 17.219 15.4727L17.6174 15.2734L18.049 15.4395C18.6467 15.7051 19.2444 15.8711 19.842 15.9375C19.676 15.7051 19.4436 15.373 19.2444 15.041L18.8459 14.4102L19.2776 13.8457C19.8752 13.0488 20.2072 12.1191 20.2072 11.1562C20.2072 8.5332 17.8166 6.375 14.8947 6.375C14.8615 6.375 14.8615 6.4082 14.8615 6.4082C14.8615 6.20898 14.8947 6.04297 14.8947 5.84375C14.8947 5.67773 14.8615 5.51172 14.8615 5.3457C14.8615 5.3457 14.8615 5.3125 14.8947 5.3125C18.4143 5.3125 21.2697 7.93555 21.2697 11.1562C21.2697 12.3848 20.8381 13.5469 20.1408 14.4766Z" fill="white"/>
</svg>
