<svg width="22" height="25" viewBox="0 0 22 25" fill="none" xmlns="http://www.w3.org/2000/svg">
<path d="M16.7366 11.587C16.6289 11.5354 16.5195 11.4857 16.4087 11.4382C16.2158 7.88258 14.2729 5.847 11.0107 5.82617C10.9959 5.82608 10.9812 5.82608 10.9664 5.82608C9.01516 5.82608 7.39233 6.65897 6.39349 8.17457L8.18763 9.40531C8.9338 8.27322 10.1048 8.03187 10.9673 8.03187C10.9772 8.03187 10.9872 8.03187 10.9971 8.03197C12.0712 8.03881 12.8818 8.35112 13.4064 8.96016C13.7882 9.40355 14.0435 10.0163 14.1699 10.7896C13.2176 10.6277 12.1876 10.5779 11.0866 10.6411C7.98499 10.8197 5.99103 12.6286 6.12495 15.1422C6.1929 16.4172 6.82809 17.5141 7.91341 18.2306C8.83104 18.8363 10.0129 19.1326 11.2412 19.0655C12.8633 18.9766 14.1358 18.3577 15.0236 17.226C15.6978 16.3667 16.1242 15.253 16.3125 13.8497C17.0855 14.3163 17.6585 14.9302 17.9749 15.6682C18.5129 16.9228 18.5443 18.9844 16.8621 20.6651C15.3883 22.1375 13.6167 22.7745 10.9393 22.7941C7.9693 22.7721 5.72315 21.8197 4.26277 19.9632C2.89525 18.2247 2.1885 15.7138 2.16214 12.5C2.1885 9.28617 2.89525 6.77521 4.26277 5.03681C5.72315 3.18033 7.96926 2.22786 10.9392 2.20579C13.9307 2.22803 16.216 3.18508 17.7323 5.05052C18.4758 5.96531 19.0363 7.11573 19.4059 8.45707L21.5083 7.89612C21.0604 6.24508 20.3556 4.82236 19.3965 3.64245C17.4526 1.25087 14.6096 0.0254099 10.9465 0H10.9319C7.27625 0.0253216 4.46512 1.25544 2.5766 3.65616C0.896081 5.7925 0.0292187 8.76507 9.11454e-05 12.4912L0 12.5L9.11454e-05 12.5088C0.0292187 16.2349 0.896081 19.2076 2.5766 21.3439C4.46512 23.7445 7.27625 24.9747 10.9319 25H10.9465C14.1966 24.9775 16.4875 24.1266 18.3747 22.241C20.8439 19.7742 20.7695 16.6822 19.9557 14.784C19.3719 13.4228 18.2587 12.3172 16.7366 11.587ZM11.1251 16.8629C9.76569 16.9395 8.35344 16.3293 8.2838 15.0224C8.23219 14.0534 8.97341 12.9721 11.2085 12.8433C11.4645 12.8286 11.7156 12.8214 11.9624 12.8214C12.7742 12.8214 13.5337 12.9002 14.2242 13.0512C13.9667 16.2676 12.456 16.7898 11.1251 16.8629Z" fill="black" fill-opacity="0.7"/>
</svg>
