<svg width="21" height="21" viewBox="0 0 21 21" fill="none" xmlns="http://www.w3.org/2000/svg">
<path d="M3.87988 0.695312L7.94238 3.82031C8.17676 4.01562 8.33301 4.28906 8.33301 4.5625V6.67188L12.5908 10.9297C13.7236 10.3828 15.1299 10.5781 16.0674 11.5156L20.4424 15.8906C20.9502 16.3594 20.9502 17.1797 20.4424 17.6484L17.9424 20.1484C17.4736 20.6562 16.6533 20.6562 16.1846 20.1484L11.8096 15.7734C10.8721 14.8359 10.6768 13.3906 11.2627 12.2578L7.00488 8H4.85645C4.58301 8 4.30957 7.88281 4.11426 7.64844L0.989258 3.58594C0.71582 3.19531 0.754883 2.6875 1.10645 2.33594L2.66895 0.773438C2.98145 0.460938 3.52832 0.421875 3.87988 0.695312ZM1.73145 15.2266L7.08301 9.875L8.41113 11.2031L3.05957 16.5547C2.8252 16.7891 2.70801 17.1016 2.70801 17.4141C2.70801 18.0781 3.25488 18.625 3.91895 18.625C4.23145 18.625 4.54395 18.5078 4.77832 18.2734L9.66113 13.3906C9.62207 14.1328 9.77832 14.875 10.1299 15.5781L6.10645 19.6016C5.52051 20.1875 4.73926 20.5 3.91895 20.5C2.2002 20.5 0.833008 19.1328 0.833008 17.4141C0.833008 16.5938 1.14551 15.8125 1.73145 15.2266ZM18.9189 6.90625L17.9424 7.92188C17.4736 8.39062 16.8486 8.625 16.1846 8.625H15.208C13.8018 8.625 12.708 7.53125 12.708 6.125V5.14844C12.708 4.48438 12.9424 3.85938 13.4111 3.39062L14.4268 2.41406C12.083 2.49219 10.208 4.40625 10.208 6.75V6.78906L9.58301 6.16406V4.5625C9.58301 4.17188 9.46582 3.78125 9.27051 3.46875C10.3643 1.71094 12.3174 0.5 14.583 0.5C15.5205 0.5 16.458 0.734375 17.2783 1.125C17.6299 1.32031 17.6689 1.78906 17.3955 2.0625L14.7393 4.71875C14.6221 4.83594 14.583 4.99219 14.583 5.14844V6.16406C14.583 6.47656 14.8564 6.78906 15.208 6.78906H16.1846C16.3408 6.78906 16.4971 6.71094 16.6143 6.59375L19.2705 3.9375C19.5439 3.66406 20.0127 3.70312 20.208 4.05469C20.5986 4.875 20.833 5.8125 20.833 6.78906C20.833 8.85938 19.7783 10.7344 18.1768 11.8672L16.9658 10.6172C16.9268 10.5781 16.8877 10.5391 16.8486 10.5C18.0596 9.75781 18.8799 8.42969 18.9189 6.90625Z" fill="black"/>
</svg>
