<svg width="14" height="15" viewBox="0 0 14 15" fill="none" xmlns="http://www.w3.org/2000/svg">
<path d="M4.98047 1.52344L4.42383 2.34375H8.67188L8.11523 1.52344C8.08594 1.46484 7.99805 1.40625 7.91016 1.40625H5.18555C5.09766 1.40625 5.00977 1.46484 4.98047 1.52344ZM9.28711 0.732422L10.3711 2.34375H12.4219C12.8027 2.34375 13.125 2.66602 13.125 3.04688C13.125 3.45703 12.8027 3.75 12.4219 3.75H12.1875V12.6562C12.1875 13.9746 11.1328 15 9.84375 15H3.28125C1.96289 15 0.9375 13.9746 0.9375 12.6562V3.75H0.703125C0.292969 3.75 0 3.45703 0 3.04688C0 2.66602 0.292969 2.34375 0.703125 2.34375H2.72461L3.80859 0.732422C4.10156 0.292969 4.62891 0 5.18555 0H7.91016C8.4668 0 8.99414 0.292969 9.28711 0.732422ZM2.34375 3.75V12.6562C2.34375 13.1836 2.75391 13.5938 3.28125 13.5938H9.84375C10.3418 13.5938 10.7812 13.1836 10.7812 12.6562V3.75H2.34375ZM4.6875 5.625V11.7188C4.6875 11.9824 4.45312 12.1875 4.21875 12.1875C3.95508 12.1875 3.75 11.9824 3.75 11.7188V5.625C3.75 5.39062 3.95508 5.15625 4.21875 5.15625C4.45312 5.15625 4.6875 5.39062 4.6875 5.625ZM7.03125 5.625V11.7188C7.03125 11.9824 6.79688 12.1875 6.5625 12.1875C6.29883 12.1875 6.09375 11.9824 6.09375 11.7188V5.625C6.09375 5.39062 6.29883 5.15625 6.5625 5.15625C6.79688 5.15625 7.03125 5.39062 7.03125 5.625ZM9.375 5.625V11.7188C9.375 11.9824 9.14062 12.1875 8.90625 12.1875C8.64258 12.1875 8.4375 11.9824 8.4375 11.7188V5.625C8.4375 5.39062 8.64258 5.15625 8.90625 5.15625C9.14062 5.15625 9.375 5.39062 9.375 5.625Z" fill="#FF3C26"/>
</svg>
