<svg width="25" height="21" viewBox="0 0 25 21" fill="none" xmlns="http://www.w3.org/2000/svg">
<path d="M5.625 6.75C4.49219 6.75 3.47656 6.16406 2.89062 5.1875C2.34375 4.25 2.34375 3.03906 2.89062 2.0625C3.47656 1.125 4.49219 0.5 5.625 0.5C6.71875 0.5 7.73438 1.125 8.32031 2.0625C8.86719 3.03906 8.86719 4.25 8.32031 5.1875C7.73438 6.16406 6.71875 6.75 5.625 6.75ZM20 6.75C18.8672 6.75 17.8516 6.16406 17.2656 5.1875C16.7188 4.25 16.7188 3.03906 17.2656 2.0625C17.8516 1.125 18.8672 0.5 20 0.5C21.0938 0.5 22.1094 1.125 22.6953 2.0625C23.2422 3.03906 23.2422 4.25 22.6953 5.1875C22.1094 6.16406 21.0938 6.75 20 6.75ZM0 12.1797C0 9.875 1.83594 8 4.14062 8H5.82031C6.44531 8 7.03125 8.15625 7.57812 8.39062C7.5 8.66406 7.5 8.97656 7.5 9.25C7.5 10.7734 8.125 12.1016 9.17969 13H9.14062H0.820312C0.351562 13 0 12.6484 0 12.1797ZM15.8203 13H15.7812C16.8359 12.1016 17.5 10.7734 17.5 9.25C17.5 8.97656 17.4609 8.66406 17.4219 8.39062C17.9297 8.15625 18.5156 8 19.1406 8H20.8203C23.125 8 25 9.875 25 12.1797C25 12.6484 24.6094 13 24.1406 13H15.8203ZM12.5 7.375C11.7969 7.375 11.2109 7.76562 10.8594 8.3125C10.5078 8.89844 10.5078 9.64062 10.8594 10.1875C11.2109 10.7734 11.7969 11.125 12.5 11.125C13.1641 11.125 13.75 10.7734 14.1016 10.1875C14.4531 9.64062 14.4531 8.89844 14.1016 8.3125C13.75 7.76562 13.1641 7.375 12.5 7.375ZM12.5 13C11.1328 13 9.92188 12.2969 9.21875 11.125C8.55469 9.99219 8.55469 8.54688 9.21875 7.375C9.92188 6.24219 11.1328 5.5 12.5 5.5C13.8281 5.5 15.0391 6.24219 15.7422 7.375C16.4062 8.54688 16.4062 9.99219 15.7422 11.125C15.0391 12.2969 13.8281 13 12.5 13ZM10.1953 16.125C8.63281 16.125 7.34375 17.2188 6.95312 18.625H18.0078C17.6172 17.2188 16.3281 16.125 14.7656 16.125H10.1953ZM10.1953 14.25H14.7656C17.6562 14.25 20 16.5938 20 19.4844C20 20.0703 19.5312 20.5 18.9453 20.5H6.01562C5.42969 20.5 5 20.0312 5 19.4844C5 16.5938 7.30469 14.25 10.1953 14.25Z" fill="white"/>
</svg>
