<svg width="11" height="13" viewBox="0 0 11 13" fill="none" xmlns="http://www.w3.org/2000/svg">
<path d="M5.58301 6.5C4.50488 6.5 3.52051 5.9375 2.98145 5C2.44238 4.08594 2.44238 2.9375 2.98145 2C3.52051 1.08594 4.50488 0.5 5.58301 0.5C6.6377 0.5 7.62207 1.08594 8.16113 2C8.7002 2.9375 8.7002 4.08594 8.16113 5C7.62207 5.9375 6.6377 6.5 5.58301 6.5ZM4.50488 7.625H6.6377C8.95801 7.625 10.833 9.5 10.833 11.8203C10.833 12.1953 10.5049 12.5 10.1299 12.5H1.0127C0.637695 12.5 0.333008 12.1953 0.333008 11.8203C0.333008 9.5 2.18457 7.625 4.50488 7.625Z" fill="#2E363B"/>
</svg>
