<svg width="22" height="21" viewBox="0 0 22 21" fill="none" xmlns="http://www.w3.org/2000/svg">
<path d="M11 18.625C11.2734 18.625 12.0547 18.3516 12.8359 16.75C13.1875 16.0469 13.5 15.2266 13.6953 14.25H8.26562C8.5 15.2266 8.77344 16.0469 9.125 16.75C9.94531 18.3516 10.6875 18.625 11 18.625ZM7.95312 12.375H14.0078C14.0859 11.7891 14.125 11.1641 14.125 10.5C14.125 9.875 14.0859 9.25 14.0078 8.625H7.95312C7.875 9.25 7.875 9.875 7.875 10.5C7.875 11.1641 7.875 11.7891 7.95312 12.375ZM8.26562 6.75H13.6953C13.5 5.8125 13.1875 4.99219 12.8359 4.28906C12.0547 2.6875 11.2734 2.375 11 2.375C10.6875 2.375 9.94531 2.6875 9.125 4.28906C8.77344 4.99219 8.5 5.8125 8.26562 6.75ZM15.8828 8.625C15.9609 9.25 15.9609 9.875 15.9609 10.5C15.9609 11.1641 15.9609 11.7891 15.8828 12.375H18.8906C19.0469 11.7891 19.125 11.1641 19.125 10.5C19.125 9.875 19.0469 9.25 18.8906 8.625H15.8828ZM18.1875 6.75C17.3672 5.14844 16 3.85938 14.3594 3.11719C14.9062 4.13281 15.3359 5.38281 15.6094 6.75H18.1875ZM6.35156 6.75C6.625 5.38281 7.05469 4.13281 7.60156 3.11719C5.96094 3.85938 4.59375 5.14844 3.77344 6.75H6.35156ZM3.07031 8.625C2.95312 9.25 2.875 9.875 2.875 10.5C2.875 11.1641 2.91406 11.7891 3.07031 12.375H6.07812C6 11.7891 6 11.1641 6 10.5C6 9.875 6 9.25 6.07812 8.625H3.07031ZM14.3594 17.9219C16 17.1797 17.3672 15.8906 18.1875 14.25H15.6094C15.3359 15.6562 14.9062 16.9062 14.3594 17.9219ZM7.60156 17.9219C7.05469 16.9062 6.625 15.6562 6.35156 14.25H3.77344C4.59375 15.8906 5.96094 17.1797 7.60156 17.9219ZM11 20.5C7.40625 20.5 4.125 18.625 2.32812 15.5C0.53125 12.4141 0.53125 8.625 2.32812 5.5C4.125 2.41406 7.40625 0.5 11 0.5C14.5547 0.5 17.8359 2.41406 19.6328 5.5C21.4297 8.625 21.4297 12.4141 19.6328 15.5C17.8359 18.625 14.5547 20.5 11 20.5Z" fill="#2E363B"/>
</svg>
